<?xml version="1.0" encoding="UTF-8" ?>
<!DOCTYPE svg PUBLIC "-//W3C//DTD SVG 1.1//EN" "http://www.w3.org/Graphics/SVG/1.1/DTD/svg11.dtd">
<svg width="897pt" height="662pt" viewBox="0 0 897 662" version="1.1" xmlns="http://www.w3.org/2000/svg">
<g id="#01050b0e">
<path fill="#01050b" opacity="0.05" d=" M 80.37 20.42 C 84.54 19.88 88.75 20.11 92.94 20.12 C 232.96 20.05 373.00 20.19 513.02 20.09 C 526.58 20.37 540.57 18.95 553.66 23.34 C 560.44 25.40 566.06 30.40 569.60 36.46 C 573.41 44.03 574.34 52.62 574.89 60.97 C 574.87 75.32 574.88 89.67 574.89 104.02 C 574.68 110.16 579.75 115.95 585.98 116.10 C 660.99 116.17 736.00 116.06 811.01 116.12 C 819.53 115.66 828.15 116.56 836.42 118.63 C 846.06 120.92 854.30 128.56 856.92 138.16 C 859.54 146.84 860.14 156.01 859.88 165.02 C 859.91 249.33 859.87 333.64 859.88 417.95 C 860.12 427.06 859.60 436.31 857.19 445.13 C 855.17 452.94 849.49 459.59 842.36 463.23 C 832.19 467.54 820.86 468.08 809.95 467.88 C 775.97 467.88 741.99 467.91 708.01 467.85 C 703.60 467.68 698.69 469.51 696.57 473.62 C 694.14 477.64 694.96 482.52 694.87 486.99 C 694.88 525.31 694.88 563.63 694.89 601.96 C 694.27 609.86 693.64 618.02 690.25 625.31 C 686.40 632.30 679.90 638.06 672.12 640.17 C 663.01 642.77 653.44 643.07 644.03 642.90 C 515.37 642.94 386.69 642.80 258.03 642.95 C 249.88 642.30 241.46 641.60 234.04 637.88 C 227.64 634.06 222.15 628.14 220.10 620.86 C 218.04 614.80 217.63 608.34 217.14 602.00 C 217.00 565.66 217.23 529.30 217.09 492.95 C 216.91 486.69 211.17 481.61 204.97 481.87 C 167.63 481.89 130.29 481.90 92.95 481.87 C 84.70 482.30 76.34 481.51 68.32 479.60 C 59.98 477.70 52.56 472.03 48.76 464.35 C 44.14 453.57 43.92 441.57 44.12 430.03 C 44.09 314.02 44.12 198.02 44.11 82.00 C 44.40 68.67 42.98 54.97 47.09 42.06 C 48.55 36.85 51.70 32.24 55.78 28.72 C 62.42 22.68 71.79 21.36 80.37 20.42 M 70.06 33.02 C 68.21 33.82 65.87 34.45 65.23 36.63 C 63.34 37.75 61.76 39.32 60.64 41.20 C 58.23 42.01 57.69 44.80 56.75 46.85 C 52.85 57.11 53.93 68.23 53.85 78.97 C 53.85 198.97 53.86 318.97 53.83 438.97 C 54.22 446.63 55.49 454.60 59.74 461.16 C 59.82 460.56 59.98 459.37 60.06 458.78 C 60.97 462.75 64.56 465.94 68.70 466.00 C 75.37 469.89 83.40 470.49 90.96 470.35 C 128.29 470.33 165.62 470.38 202.95 470.30 C 209.99 470.35 218.00 471.40 222.84 477.11 C 227.59 481.71 228.57 488.70 228.68 495.00 C 228.60 530.02 228.74 565.05 228.61 600.07 C 228.85 606.34 229.85 612.82 232.98 618.35 C 233.08 622.60 236.51 626.33 240.69 626.94 C 246.74 631.52 254.82 631.04 261.98 632.12 C 280.00 632.38 298.03 632.16 316.05 632.24 C 427.03 632.22 538.01 632.26 648.99 632.22 C 656.50 631.27 664.92 631.68 671.27 626.93 C 674.31 626.50 676.86 624.42 678.35 621.79 C 680.31 621.28 680.90 619.23 681.65 617.62 C 683.82 612.01 684.98 605.97 684.95 599.95 C 684.87 568.98 684.93 538.00 685.07 507.03 C 685.26 496.38 684.43 485.69 685.37 475.07 C 686.72 470.03 688.50 464.20 693.43 461.55 C 697.91 459.23 702.89 457.47 708.02 457.93 C 718.68 457.99 729.34 458.14 740.00 458.13 C 759.99 457.65 779.98 458.56 799.97 457.82 C 811.79 457.92 824.23 459.29 835.34 454.30 C 836.60 453.59 838.61 453.16 838.67 451.36 C 840.86 450.20 842.59 448.30 843.62 446.05 C 846.46 443.91 847.23 440.25 848.07 436.99 C 849.93 429.46 849.08 421.67 849.23 414.00 C 849.24 332.00 849.24 250.00 849.23 168.01 C 849.16 161.32 849.78 154.53 848.26 147.95 C 847.41 144.36 846.66 140.30 843.58 137.89 C 842.50 135.47 840.56 133.54 838.17 132.45 C 837.08 131.27 835.90 130.13 834.35 129.62 C 828.21 127.23 821.53 126.45 814.97 126.75 C 739.00 126.77 663.02 126.75 587.04 126.76 C 582.66 126.94 578.47 125.41 574.66 123.38 C 568.13 120.34 565.23 112.77 564.34 106.07 C 564.09 94.70 564.33 83.33 564.25 71.96 C 564.10 65.27 564.79 58.48 563.24 51.90 C 562.40 48.32 561.61 44.33 558.61 41.88 C 557.59 39.69 555.90 37.89 553.83 36.67 C 553.60 36.25 553.12 35.42 552.88 35.00 C 544.84 30.35 535.12 29.62 526.00 29.86 C 379.67 29.85 233.33 29.83 87.00 29.86 C 81.25 30.04 75.47 31.00 70.06 33.02 Z" />
</g>
<g id="#030b171d">
<path fill="#030b17" opacity="0.11" d=" M 70.06 33.02 C 75.47 31.00 81.25 30.04 87.00 29.86 C 233.33 29.83 379.67 29.85 526.00 29.86 C 535.12 29.62 544.84 30.35 552.88 35.00 C 553.12 35.42 553.60 36.25 553.83 36.67 C 548.96 35.52 543.92 36.12 538.97 35.98 C 386.30 35.96 233.64 35.96 80.98 35.97 C 75.73 36.12 70.41 35.53 65.23 36.63 C 65.87 34.45 68.21 33.82 70.06 33.02 Z" />
<path fill="#030b17" opacity="0.11" d=" M 56.75 46.85 C 57.69 44.80 58.23 42.01 60.64 41.20 C 60.05 43.77 59.93 46.41 59.96 49.04 C 60.03 185.62 59.84 322.20 60.06 458.78 C 59.98 459.37 59.82 460.56 59.74 461.16 C 55.49 454.60 54.22 446.63 53.83 438.97 C 53.86 318.97 53.85 198.97 53.85 78.97 C 53.93 68.23 52.85 57.11 56.75 46.85 Z" />
</g>
<g id="#1e63c8ff">
<path fill="#1e63c8" opacity="1.00" d=" M 65.23 36.63 C 70.41 35.53 75.73 36.12 80.98 35.97 C 233.64 35.96 386.30 35.96 538.97 35.98 C 543.92 36.12 548.96 35.52 553.83 36.67 C 555.90 37.89 557.59 39.69 558.61 41.88 C 559.50 55.22 558.80 68.63 559.02 82.01 C 558.98 98.65 559.07 115.29 559.10 131.93 C 558.93 146.68 559.19 161.44 559.02 176.20 C 554.41 178.70 549.63 181.05 546.03 184.99 C 539.62 190.06 534.48 196.46 529.92 203.19 C 529.30 203.95 528.68 204.69 528.05 205.43 C 502.37 205.06 476.68 205.38 451.00 205.27 C 435.15 205.37 419.29 205.07 403.44 205.42 C 403.43 225.19 403.58 244.97 403.38 264.74 C 363.23 264.76 323.08 264.73 282.93 264.74 C 281.30 264.76 279.76 265.32 278.23 265.76 C 278.09 278.81 278.20 291.85 278.12 304.89 C 266.39 304.94 254.67 304.95 242.95 305.00 C 239.83 304.90 236.56 306.07 234.73 308.71 C 232.32 311.98 233.13 316.26 232.98 320.04 C 233.01 368.71 233.01 417.38 232.99 466.05 C 229.59 466.01 226.19 465.99 222.80 466.03 C 171.43 465.99 120.06 466.03 68.70 466.00 C 64.56 465.94 60.97 462.75 60.06 458.78 C 59.84 322.20 60.03 185.62 59.96 49.04 C 59.93 46.41 60.05 43.77 60.64 41.20 C 61.76 39.32 63.34 37.75 65.23 36.63 M 266.62 109.60 C 264.13 115.79 265.79 122.66 263.64 128.94 C 261.75 129.14 259.89 128.74 258.37 127.58 C 253.48 124.26 248.38 121.02 242.64 119.41 C 235.12 117.75 227.61 120.71 220.04 120.08 C 213.18 120.47 206.82 117.30 200.03 117.05 C 192.33 116.52 184.65 115.76 176.98 114.96 C 170.98 115.06 164.98 114.97 158.99 115.05 C 150.38 116.27 141.56 116.72 132.95 115.23 C 127.73 114.33 122.53 115.78 117.37 116.41 C 107.06 118.51 97.87 126.13 94.17 136.03 C 92.09 143.10 91.02 150.73 93.02 157.96 C 94.66 167.03 101.25 174.42 109.01 178.96 C 121.54 184.82 135.89 183.40 149.14 181.30 C 157.45 181.03 165.68 179.42 174.01 179.99 C 181.98 180.78 189.96 181.49 197.94 182.06 C 208.97 181.65 220.08 182.83 231.03 181.16 C 236.02 181.19 241.04 180.72 245.58 178.50 C 248.69 176.78 252.18 177.60 255.35 178.62 C 257.83 183.92 259.45 189.60 262.34 194.71 C 267.85 205.42 279.11 212.74 291.04 213.90 C 300.21 213.98 308.67 209.30 315.28 203.26 C 318.26 200.20 321.24 197.02 325.06 195.01 C 328.23 193.28 332.36 193.58 335.24 195.77 C 339.99 199.08 344.46 203.14 350.16 204.75 C 353.38 205.61 356.64 206.51 359.98 206.74 C 370.92 205.85 381.73 200.12 387.62 190.70 C 392.99 183.12 395.11 172.94 391.89 164.06 C 390.23 156.76 383.32 151.64 382.97 143.96 C 383.88 140.02 386.29 136.65 388.09 133.08 C 392.05 126.26 394.48 117.86 391.86 110.13 C 389.01 99.12 380.58 90.06 370.12 85.83 C 363.04 83.35 355.03 82.99 348.08 86.11 C 341.47 88.35 336.82 94.45 329.94 95.98 C 323.84 96.37 319.58 91.04 314.58 88.39 C 309.60 85.47 303.77 83.94 298.01 83.96 C 283.54 84.75 270.77 95.94 266.62 109.60 M 381.90 251.89 C 378.10 257.51 372.04 260.99 366.01 263.77 C 378.04 263.80 390.07 264.38 402.09 264.09 C 402.72 258.39 402.20 252.66 402.25 246.95 C 402.05 238.64 402.27 230.31 401.77 222.01 C 391.48 229.24 389.53 242.56 381.90 251.89 Z" />
</g>
<g id="#030c1920">
<path fill="#030c19" opacity="0.13" d=" M 558.61 41.88 C 561.61 44.33 562.40 48.32 563.24 51.90 C 564.79 58.48 564.10 65.27 564.25 71.96 C 564.33 83.33 564.09 94.70 564.34 106.07 C 565.23 112.77 568.13 120.34 574.66 123.38 C 578.47 125.41 582.66 126.94 587.04 126.76 C 663.02 126.75 739.00 126.77 814.97 126.75 C 821.53 126.45 828.21 127.23 834.35 129.62 C 835.90 130.13 837.08 131.27 838.17 132.45 C 834.17 131.74 830.10 132.04 826.07 131.99 C 740.76 131.95 655.45 132.04 570.14 131.95 C 566.46 131.93 562.78 131.90 559.10 131.93 C 559.07 115.29 558.98 98.65 559.02 82.01 C 558.80 68.63 559.50 55.22 558.61 41.88 Z" />
<path fill="#030c19" opacity="0.13" d=" M 843.58 137.89 C 846.66 140.30 847.41 144.36 848.26 147.95 C 849.78 154.53 849.16 161.32 849.23 168.01 C 849.24 250.00 849.24 332.00 849.23 414.00 C 849.08 421.67 849.93 429.46 848.07 436.99 C 847.23 440.25 846.46 443.91 843.62 446.05 C 843.89 444.04 844.00 442.02 844.02 440.01 C 844.01 341.02 844.02 242.03 844.01 143.05 C 843.98 141.32 843.84 139.59 843.58 137.89 Z" />
<path fill="#030c19" opacity="0.13" d=" M 679.09 452.09 C 683.69 452.09 688.30 452.05 692.91 452.04 C 737.94 451.98 782.97 452.03 827.99 452.01 C 831.55 451.98 835.17 452.26 838.67 451.36 C 838.61 453.16 836.60 453.59 835.34 454.30 C 824.23 459.29 811.79 457.92 799.97 457.82 C 779.98 458.56 759.99 457.65 740.00 458.13 C 729.34 458.14 718.68 457.99 708.02 457.93 C 702.89 457.47 697.91 459.23 693.43 461.55 C 688.50 464.20 686.72 470.03 685.37 475.07 C 684.43 485.69 685.26 496.38 685.07 507.03 C 684.93 538.00 684.87 568.98 684.95 599.95 C 684.98 605.97 683.82 612.01 681.65 617.62 C 680.90 619.23 680.31 621.28 678.35 621.79 C 679.24 617.90 679.01 613.90 679.01 609.96 C 679.07 557.33 678.95 504.71 679.09 452.09 Z" />
<path fill="#030c19" opacity="0.13" d=" M 240.69 626.94 C 277.47 627.13 314.24 626.97 351.02 627.03 C 457.77 626.97 564.52 627.14 671.27 626.93 C 664.92 631.68 656.50 631.27 648.99 632.22 C 538.01 632.26 427.03 632.22 316.05 632.24 C 298.03 632.16 280.00 632.38 261.98 632.12 C 254.82 631.04 246.74 631.52 240.69 626.94 Z" />
</g>
<g id="#296acaff">
<path fill="#296aca" opacity="1.00" d=" M 266.62 109.60 C 270.77 95.94 283.54 84.75 298.01 83.96 C 303.77 83.94 309.60 85.47 314.58 88.39 C 319.58 91.04 323.84 96.37 329.94 95.98 C 336.82 94.45 341.47 88.35 348.08 86.11 C 355.03 82.99 363.04 83.35 370.12 85.83 C 380.58 90.06 389.01 99.12 391.86 110.13 C 394.48 117.86 392.05 126.26 388.09 133.08 C 386.29 136.65 383.88 140.02 382.97 143.96 C 383.32 151.64 390.23 156.76 391.89 164.06 C 395.11 172.94 392.99 183.12 387.62 190.70 C 381.73 200.12 370.92 205.85 359.98 206.74 C 356.64 206.51 353.38 205.61 350.16 204.75 C 344.46 203.14 339.99 199.08 335.24 195.77 C 332.36 193.58 328.23 193.28 325.06 195.01 C 321.24 197.02 318.26 200.20 315.28 203.26 C 308.67 209.30 300.21 213.98 291.04 213.90 C 279.11 212.74 267.85 205.42 262.34 194.71 C 259.45 189.60 257.83 183.92 255.35 178.62 C 252.18 177.60 248.69 176.78 245.58 178.50 C 241.04 180.72 236.02 181.19 231.03 181.16 C 220.08 182.83 208.97 181.65 197.94 182.06 C 189.96 181.49 181.98 180.78 174.01 179.99 C 165.68 179.42 157.45 181.03 149.14 181.30 C 135.89 183.40 121.54 184.82 109.01 178.96 C 101.25 174.42 94.66 167.03 93.02 157.96 C 91.02 150.73 92.09 143.10 94.17 136.03 C 97.87 126.13 107.06 118.51 117.37 116.41 C 122.53 115.78 127.73 114.33 132.95 115.23 C 141.56 116.72 150.38 116.27 158.99 115.05 C 164.98 114.97 170.98 115.06 176.98 114.96 C 184.65 115.76 192.33 116.52 200.03 117.05 C 206.82 117.30 213.18 120.47 220.04 120.08 C 227.61 120.71 235.12 117.75 242.64 119.41 C 248.38 121.02 253.48 124.26 258.37 127.58 C 259.89 128.74 261.75 129.14 263.64 128.94 C 265.79 122.66 264.13 115.79 266.62 109.60 M 296.69 95.10 C 289.17 102.40 282.02 110.10 274.26 117.14 C 275.01 117.99 275.77 118.86 276.56 119.68 C 274.81 124.36 278.11 128.88 279.99 132.99 C 283.01 138.22 285.63 144.82 282.76 150.69 C 278.33 160.34 267.77 167.78 268.96 179.46 C 268.43 180.01 267.90 180.57 267.38 181.12 C 275.71 188.95 284.01 196.83 292.02 204.99 C 293.10 203.83 294.20 202.67 295.32 201.53 C 295.97 201.60 297.27 201.75 297.92 201.82 C 306.19 198.98 313.02 193.16 319.34 187.28 C 323.08 184.17 327.82 181.05 332.93 182.13 C 339.01 183.75 341.90 190.32 347.80 192.24 C 350.68 193.29 353.46 195.43 356.69 194.58 C 357.77 195.66 358.88 196.71 359.98 197.77 C 368.43 189.60 376.52 181.06 385.06 172.99 L 384.56 172.55 C 382.66 165.34 378.94 158.63 373.83 153.20 C 370.84 150.19 368.89 145.58 370.48 141.42 C 373.51 135.96 378.49 131.74 380.90 125.90 C 381.75 123.59 383.06 121.16 382.38 118.64 C 382.80 118.23 383.62 117.41 384.03 117.00 C 376.97 109.71 369.57 102.76 362.39 95.59 C 361.32 94.53 360.28 93.32 358.71 93.12 C 358.36 93.50 357.66 94.26 357.32 94.65 C 356.10 94.33 354.83 93.98 353.62 94.51 C 347.26 96.47 342.24 101.05 337.15 105.13 C 334.71 107.07 331.50 108.61 328.34 107.62 C 319.99 105.72 314.72 98.01 306.64 95.53 C 303.35 94.73 300.54 92.83 297.61 91.24 C 297.29 92.52 296.98 93.81 296.69 95.10 M 151.71 129.67 C 150.39 131.82 148.98 133.90 147.56 135.97 C 147.38 133.82 147.12 131.66 146.34 129.63 C 136.54 129.62 126.74 129.62 116.94 129.61 C 111.62 129.38 106.47 134.61 107.14 139.98 C 107.30 147.31 106.75 154.70 107.46 162.00 C 109.18 165.14 111.96 168.64 115.92 168.50 C 126.02 168.50 136.13 168.61 146.23 168.43 L 146.22 169.51 C 151.11 170.33 156.05 171.05 161.03 170.94 C 165.01 170.89 168.95 169.47 172.94 170.25 C 182.21 171.75 191.60 172.08 200.92 173.00 C 213.96 172.36 227.25 174.35 240.05 171.06 C 242.46 170.47 245.01 170.08 247.05 168.55 L 245.65 168.51 C 245.67 155.59 245.75 142.67 245.61 129.74 C 245.89 129.71 246.45 129.63 246.72 129.60 C 242.42 129.64 238.12 129.63 233.82 129.60 C 232.42 132.09 231.11 134.63 229.89 137.22 C 225.29 136.48 220.63 136.53 215.99 136.63 C 214.74 136.59 213.63 136.98 212.68 137.79 C 211.26 135.08 210.32 132.05 208.30 129.71 C 204.38 129.41 200.45 129.71 196.52 129.61 L 196.52 129.98 C 194.20 130.63 195.06 133.81 194.41 135.64 C 193.85 135.63 192.73 135.61 192.17 135.60 C 191.06 134.67 189.94 133.76 188.82 132.86 L 189.24 134.01 C 187.39 131.82 184.99 129.60 181.93 129.61 C 171.86 129.60 161.78 129.54 151.71 129.67 M 262.43 151.32 C 266.10 151.26 269.78 151.26 273.46 151.31 C 273.47 149.75 273.48 148.20 273.49 146.65 C 269.79 146.67 266.10 146.67 262.41 146.62 C 262.39 148.18 262.39 149.75 262.43 151.32 Z" />
</g>
<g id="#3774cdff">
<path fill="#3774cd" opacity="1.00" d=" M 296.69 95.10 C 296.98 93.81 297.29 92.52 297.61 91.24 C 300.54 92.83 303.35 94.73 306.64 95.53 C 314.72 98.01 319.99 105.72 328.34 107.62 C 331.50 108.61 334.71 107.07 337.15 105.13 C 342.24 101.05 347.26 96.47 353.62 94.51 C 354.83 93.98 356.10 94.33 357.32 94.65 C 349.91 102.22 342.20 109.49 334.59 116.86 C 336.02 118.24 337.44 119.62 338.85 121.03 C 336.10 123.69 332.11 122.36 328.74 122.29 C 318.80 112.50 308.79 102.78 298.95 92.90 C 298.38 93.45 297.25 94.55 296.69 95.10 Z" />
<path fill="#3774cd" opacity="1.00" d=" M 382.38 118.64 C 383.06 121.16 381.75 123.59 380.90 125.90 C 378.49 131.74 373.51 135.96 370.48 141.42 C 368.89 145.58 370.84 150.19 373.83 153.20 C 378.94 158.63 382.66 165.34 384.56 172.55 C 376.08 164.83 368.02 156.63 359.96 148.47 C 357.30 151.10 354.60 153.69 351.98 156.37 C 350.95 155.93 349.91 155.50 348.88 155.06 C 348.49 152.93 348.12 150.79 347.78 148.65 C 348.44 148.13 349.10 147.62 349.76 147.10 C 352.78 145.09 353.39 140.89 356.94 139.36 C 357.49 139.98 358.60 141.20 359.15 141.82 C 367.00 134.20 374.57 126.30 382.38 118.64 Z" />
<path fill="#3774cd" opacity="1.00" d=" M 328.34 174.34 C 331.01 173.81 333.75 174.18 336.45 174.32 C 343.15 181.12 350.00 187.77 356.69 194.58 C 353.46 195.43 350.68 193.29 347.80 192.24 C 341.90 190.32 339.01 183.75 332.93 182.13 C 327.82 181.05 323.08 184.17 319.34 187.28 C 313.02 193.16 306.19 198.98 297.92 201.82 C 297.27 201.75 295.97 201.60 295.32 201.53 C 303.28 193.51 311.23 185.49 319.25 177.53 C 322.49 177.10 325.27 175.30 328.34 174.34 Z" />
</g>
<g id="#ffffffff">
<path fill="#ffffff" opacity="1.00" d=" M 358.71 93.12 C 360.28 93.32 361.32 94.53 362.39 95.59 C 369.57 102.76 376.97 109.71 384.03 117.00 C 383.62 117.41 382.80 118.23 382.38 118.64 C 374.57 126.30 367.00 134.20 359.15 141.82 C 358.60 141.20 357.49 139.98 356.94 139.36 C 351.02 133.14 344.88 127.14 338.85 121.03 C 337.44 119.62 336.02 118.24 334.59 116.86 C 342.20 109.49 349.91 102.22 357.32 94.65 C 357.66 94.26 358.36 93.50 358.71 93.12 Z" />
<path fill="#ffffff" opacity="1.00" d=" M 296.69 95.10 C 297.25 94.55 298.38 93.45 298.95 92.90 C 308.79 102.78 318.80 112.50 328.74 122.29 C 336.22 129.61 343.58 137.05 351.17 144.26 C 350.71 145.22 350.24 146.16 349.76 147.10 C 349.10 147.62 348.44 148.13 347.78 148.65 C 338.23 158.22 328.64 167.78 319.25 177.53 C 311.23 185.49 303.28 193.51 295.32 201.53 C 294.20 202.67 293.10 203.83 292.02 204.99 C 284.01 196.83 275.71 188.95 267.38 181.12 C 267.90 180.57 268.43 180.01 268.96 179.46 C 279.77 168.04 290.40 156.46 301.08 144.91 C 293.05 136.37 284.84 127.99 276.56 119.68 C 275.77 118.86 275.01 117.99 274.26 117.14 C 282.02 110.10 289.17 102.40 296.69 95.10 Z" />
<path fill="#ffffff" opacity="1.00" d=" M 151.71 129.67 C 161.78 129.54 171.86 129.60 181.93 129.61 C 184.99 129.60 187.39 131.82 189.24 134.01 C 191.17 138.85 191.72 145.05 187.89 149.12 C 188.89 150.71 190.45 152.15 190.50 154.15 C 190.80 158.93 190.44 163.72 190.66 168.50 C 186.55 168.50 182.44 168.52 178.34 168.47 C 177.91 163.20 179.26 157.67 177.31 152.63 C 173.03 152.70 168.76 152.64 164.48 152.65 C 164.43 156.41 164.42 160.17 164.43 163.93 C 164.43 165.43 164.43 166.94 164.42 168.45 C 160.31 168.50 156.20 168.49 152.09 168.55 C 151.24 155.62 151.94 142.63 151.71 129.67 M 164.51 136.78 C 164.43 139.68 164.40 142.59 164.44 145.49 C 168.71 145.49 172.98 145.44 177.25 145.50 C 178.86 143.12 178.56 140.09 177.30 137.63 C 173.21 136.08 168.76 137.05 164.51 136.78 Z" />
<path fill="#ffffff" opacity="1.00" d=" M 196.52 129.61 C 200.45 129.71 204.38 129.41 208.30 129.71 C 210.32 132.05 211.26 135.08 212.68 137.79 C 215.34 143.14 218.04 148.46 220.67 153.82 C 222.00 153.89 222.25 152.40 222.83 151.51 C 225.10 146.71 227.60 142.02 229.89 137.22 C 231.11 134.63 232.42 132.09 233.82 129.60 C 238.12 129.63 242.42 129.64 246.72 129.60 C 246.45 129.63 245.89 129.71 245.61 129.74 C 245.75 142.67 245.67 155.59 245.65 168.51 C 241.57 168.44 237.49 168.52 233.40 168.51 C 233.30 162.69 233.40 156.87 233.33 151.05 C 230.05 156.74 227.47 162.80 224.27 168.54 C 222.14 168.52 220.01 168.50 217.89 168.48 C 214.99 162.72 211.81 157.08 209.50 151.04 C 208.85 156.88 209.89 162.82 208.68 168.60 C 204.63 168.50 200.58 168.51 196.53 168.45 C 196.45 155.63 196.48 142.80 196.52 129.98 L 196.52 129.61 Z" />
<path fill="#ffffff" opacity="1.00" d=" M 107.14 139.98 C 106.47 134.61 111.62 129.38 116.94 129.61 C 126.74 129.62 136.54 129.62 146.34 129.63 C 146.27 131.93 146.27 134.22 146.32 136.52 C 137.83 137.81 129.03 135.61 120.56 137.52 C 118.99 142.54 119.97 147.85 119.68 153.02 C 119.82 155.81 118.90 159.62 121.96 161.19 C 130.05 161.66 138.17 161.10 146.27 161.47 C 146.26 163.78 146.25 166.10 146.23 168.43 C 136.13 168.61 126.02 168.50 115.92 168.50 C 111.96 168.64 109.18 165.14 107.46 162.00 C 106.75 154.70 107.30 147.31 107.14 139.98 Z" />
<path fill="#ffffff" opacity="1.00" d=" M 262.43 151.32 C 262.39 149.75 262.39 148.18 262.41 146.62 C 266.10 146.67 269.79 146.67 273.49 146.65 C 273.48 148.20 273.47 149.75 273.46 151.31 C 269.78 151.26 266.10 151.26 262.43 151.32 Z" />
<path fill="#ffffff" opacity="1.00" d=" M 351.98 156.37 C 354.60 153.69 357.30 151.10 359.96 148.47 C 368.02 156.63 376.08 164.83 384.56 172.55 L 385.06 172.99 C 376.52 181.06 368.43 189.60 359.98 197.77 C 358.88 196.71 357.77 195.66 356.69 194.58 C 350.00 187.77 343.15 181.12 336.45 174.32 C 336.14 174.00 335.53 173.37 335.22 173.05 C 340.80 167.49 346.46 161.99 351.98 156.37 Z" />
<path fill="#ffffff" opacity="1.00" d=" M 397.27 540.05 C 398.30 539.24 398.98 537.65 400.43 537.60 C 401.50 538.40 402.37 539.44 403.25 540.44 C 402.12 541.15 401.28 542.54 399.89 542.74 C 398.91 541.94 398.10 540.97 397.27 540.05 Z" />
<path fill="#ffffff" opacity="1.00" d=" M 495.96 539.11 C 497.24 538.89 498.54 538.67 499.84 538.46 C 500.83 545.88 500.78 553.40 500.36 560.86 C 499.02 560.73 497.70 560.60 496.38 560.48 C 496.89 553.35 496.63 546.21 495.96 539.11 Z" />
<path fill="#ffffff" opacity="1.00" d=" M 476.09 543.01 C 477.08 541.97 478.08 540.94 479.09 539.91 C 480.11 540.94 481.15 541.98 482.19 543.02 C 481.14 544.00 480.10 544.99 479.06 545.99 C 478.06 544.99 477.07 544.00 476.09 543.01 Z" />
<path fill="#ffffff" opacity="1.00" d=" M 382.75 543.99 C 383.76 542.88 384.81 541.81 385.89 540.78 C 386.46 541.31 387.60 542.36 388.17 542.89 C 388.66 542.38 389.65 541.36 390.14 540.85 C 391.12 541.58 392.20 542.24 392.93 543.27 C 393.50 545.11 391.16 545.93 390.07 546.91 C 389.59 546.40 388.63 545.38 388.15 544.87 C 387.59 545.39 386.47 546.44 385.91 546.96 C 384.85 545.96 383.81 544.97 382.75 543.99 Z" />
<path fill="#ffffff" opacity="1.00" d=" M 395.18 552.02 C 394.41 548.52 396.86 543.81 400.89 544.24 C 407.09 546.11 408.51 557.58 401.61 559.49 C 399.33 560.29 396.89 560.33 394.50 560.39 C 393.64 563.44 391.97 566.50 388.94 567.85 C 384.73 569.57 379.02 568.78 376.43 564.70 C 374.01 560.67 375.27 555.75 377.15 551.79 C 378.48 552.19 379.79 552.68 381.08 553.22 C 379.85 556.11 377.60 559.89 380.15 562.72 C 382.99 566.28 389.04 564.73 390.39 560.52 C 388.10 560.25 385.32 560.30 383.79 558.26 C 381.70 555.70 382.87 552.01 384.64 549.62 C 386.19 547.40 389.84 547.40 391.61 549.37 C 393.77 551.09 394.16 553.96 394.83 556.46 C 396.67 556.27 398.51 556.11 400.37 556.00 C 398.37 555.24 395.48 554.52 395.18 552.02 M 398.68 551.08 C 399.87 551.45 401.06 551.82 402.27 552.20 C 401.68 550.78 401.08 549.38 400.46 547.99 C 399.82 548.99 399.23 550.01 398.68 551.08 M 386.73 556.02 C 388.03 556.19 389.34 556.37 390.65 556.54 C 390.17 554.83 389.49 553.19 388.63 551.65 C 387.06 552.58 386.80 554.34 386.73 556.02 Z" />
<path fill="#ffffff" opacity="1.00" d=" M 452.32 546.00 C 453.54 545.36 454.41 542.38 456.07 543.78 C 457.49 544.95 458.82 544.73 460.04 543.13 C 461.02 544.10 462.01 545.08 462.99 546.06 C 462.01 547.08 461.03 548.12 460.05 549.15 C 459.27 548.44 458.51 547.75 457.75 547.06 C 456.87 547.53 455.73 549.77 454.67 548.36 C 453.86 547.59 453.07 546.81 452.32 546.00 Z" />
<path fill="#ffffff" opacity="1.00" d=" M 506.43 548.45 C 504.61 547.40 506.65 545.50 506.92 544.17 C 510.88 546.08 514.15 549.65 515.27 553.95 C 516.06 556.44 514.48 559.30 511.99 560.03 C 508.76 561.23 505.27 560.41 502.10 559.48 C 502.45 558.20 502.82 556.92 503.20 555.66 C 505.89 556.44 508.71 556.96 511.48 556.12 C 511.22 552.85 508.88 550.36 506.43 548.45 Z" />
<path fill="#ffffff" opacity="1.00" d=" M 446.24 546.98 C 447.46 547.49 448.68 548.02 449.90 548.57 C 449.24 550.56 447.90 553.27 450.07 554.86 C 453.59 556.99 458.11 556.62 461.97 555.75 C 464.97 555.14 466.48 552.24 467.38 549.61 C 468.57 549.88 469.76 550.16 470.96 550.45 C 470.87 552.35 469.63 555.19 472.06 556.12 C 476.94 557.05 482.26 555.90 486.38 553.10 C 484.67 552.29 482.98 551.42 481.15 550.95 C 479.26 551.06 478.60 553.17 477.53 554.38 C 476.29 553.76 475.08 553.09 473.92 552.36 C 475.48 550.18 477.10 547.53 479.96 547.01 C 484.78 546.84 488.66 550.39 493.39 550.87 C 493.59 552.02 493.79 553.17 494.00 554.34 C 488.80 556.65 483.78 559.81 477.97 560.27 C 474.33 560.50 469.80 560.90 467.42 557.53 C 462.95 560.66 457.11 560.84 451.92 559.91 C 449.25 559.47 446.64 557.95 445.49 555.42 C 444.41 552.65 445.12 549.61 446.24 546.98 Z" />
<path fill="#ffffff" opacity="1.00" d=" M 532.12 548.24 C 533.38 547.72 534.66 547.25 535.96 546.85 C 537.40 550.15 538.95 554.02 537.34 557.55 C 534.95 561.34 529.69 560.39 525.91 560.03 C 524.61 564.79 520.71 568.48 516.11 570.08 C 515.53 568.94 514.95 567.81 514.38 566.69 C 516.88 565.19 519.69 563.75 521.10 561.06 C 522.80 558.02 520.75 554.72 520.14 551.66 C 521.38 551.33 522.63 551.01 523.89 550.71 C 524.97 552.97 525.77 556.52 528.96 556.43 C 530.62 556.34 533.29 556.84 534.09 554.96 C 534.07 552.58 532.93 550.42 532.12 548.24 Z" />
<path fill="#ffffff" opacity="1.00" d=" M 407.65 557.54 C 405.82 553.51 408.80 546.72 413.97 548.06 C 417.49 549.24 418.62 553.26 419.13 556.55 C 424.72 556.76 423.85 548.57 428.97 548.18 C 434.91 547.67 436.76 557.25 431.86 559.80 C 429.64 560.85 427.23 559.52 425.19 558.67 C 423.24 559.93 420.98 560.44 418.69 560.46 C 416.70 564.56 413.09 567.50 409.20 569.72 C 408.54 568.51 407.89 567.34 407.24 566.15 C 409.78 564.57 412.17 562.74 414.16 560.50 C 411.81 560.07 408.91 559.93 407.65 557.54 M 412.28 551.64 C 411.77 552.80 411.27 553.97 410.77 555.15 C 411.92 556.25 413.47 556.48 415.00 556.61 C 414.67 554.67 413.95 552.79 412.28 551.64 M 427.32 555.11 C 427.92 555.39 429.10 555.96 429.69 556.25 C 431.47 555.22 430.20 553.35 429.78 551.93 C 428.93 552.96 428.11 554.01 427.32 555.11 Z" />
<path fill="#ffffff" opacity="1.00" d=" M 527.92 564.67 C 528.62 563.31 529.72 562.26 530.89 561.31 C 531.44 561.80 532.54 562.80 533.09 563.30 C 534.43 560.58 538.55 561.93 537.85 564.80 C 536.14 566.83 535.57 569.68 533.09 571.01 C 531.24 568.99 530.10 566.39 527.92 564.67 Z" />
</g>
<g id="#3875ceff">
<path fill="#3875ce" opacity="1.00" d=" M 279.99 132.99 C 278.11 128.88 274.81 124.36 276.56 119.68 C 284.84 127.99 293.05 136.37 301.08 144.91 C 290.40 156.46 279.77 168.04 268.96 179.46 C 267.77 167.78 278.33 160.34 282.76 150.69 C 285.63 144.82 283.01 138.22 279.99 132.99 Z" />
</g>
<g id="#4880d1ff">
<path fill="#4880d1" opacity="1.00" d=" M 338.85 121.03 C 344.88 127.14 351.02 133.14 356.94 139.36 C 353.39 140.89 352.78 145.09 349.76 147.10 C 350.24 146.16 350.71 145.22 351.17 144.26 C 343.58 137.05 336.22 129.61 328.74 122.29 C 332.11 122.36 336.10 123.69 338.85 121.03 Z" />
</g>
<g id="#3472cdff">
<path fill="#3472cd" opacity="1.00" d=" M 146.34 129.63 C 147.12 131.66 147.38 133.82 147.56 135.97 C 148.98 133.90 150.39 131.82 151.71 129.67 C 151.94 142.63 151.24 155.62 152.09 168.55 C 156.20 168.49 160.31 168.50 164.42 168.45 C 164.43 166.94 164.43 165.43 164.43 163.93 C 168.23 163.80 172.03 163.85 175.83 164.05 C 176.66 165.52 177.50 166.99 178.34 168.47 C 182.44 168.52 186.55 168.50 190.66 168.50 C 191.52 166.53 192.34 164.55 193.15 162.57 C 194.28 164.53 195.41 166.49 196.53 168.45 C 200.58 168.51 204.63 168.50 208.68 168.60 C 209.89 162.82 208.85 156.88 209.50 151.04 C 211.81 157.08 214.99 162.72 217.89 168.48 C 220.01 168.50 222.14 168.52 224.27 168.54 C 227.47 162.80 230.05 156.74 233.33 151.05 C 233.40 156.87 233.30 162.69 233.40 168.51 C 237.49 168.52 241.57 168.44 245.65 168.51 L 247.05 168.55 C 245.01 170.08 242.46 170.47 240.05 171.06 C 227.25 174.35 213.96 172.36 200.92 173.00 C 191.60 172.08 182.21 171.75 172.94 170.25 C 168.95 169.47 165.01 170.89 161.03 170.94 C 156.05 171.05 151.11 170.33 146.22 169.51 L 146.23 168.43 C 146.25 166.10 146.26 163.78 146.27 161.47 C 138.17 161.10 130.05 161.66 121.96 161.19 C 118.90 159.62 119.82 155.81 119.68 153.02 C 119.97 147.85 118.99 142.54 120.56 137.52 C 129.03 135.61 137.83 137.81 146.32 136.52 C 146.27 134.22 146.27 131.93 146.34 129.63 Z" />
</g>
<g id="#457ed0ff">
<path fill="#457ed0" opacity="1.00" d=" M 194.41 135.64 C 195.06 133.81 194.20 130.63 196.52 129.98 C 196.48 142.80 196.45 155.63 196.53 168.45 C 195.41 166.49 194.28 164.53 193.15 162.57 C 192.34 164.55 191.52 166.53 190.66 168.50 C 190.44 163.72 190.80 158.93 190.50 154.15 C 190.45 152.15 188.89 150.71 187.89 149.12 C 191.72 145.05 191.17 138.85 189.24 134.01 L 188.82 132.86 C 189.94 133.76 191.06 134.67 192.17 135.60 C 192.73 135.61 193.85 135.63 194.41 135.64 Z" />
</g>
<g id="#bbd0efff">
<path fill="#bbd0ef" opacity="1.00" d=" M 559.10 131.93 C 562.78 131.90 566.46 131.93 570.14 131.95 C 569.69 140.29 570.41 148.60 571.78 156.83 C 572.10 161.38 572.82 165.88 573.51 170.38 C 568.69 172.35 563.51 173.50 559.02 176.20 C 559.19 161.44 558.93 146.68 559.10 131.93 Z" />
</g>
<g id="#cdddf4ff">
<path fill="#cdddf4" opacity="1.00" d=" M 570.14 131.95 C 655.45 132.04 740.76 131.95 826.07 131.99 C 830.10 132.04 834.17 131.74 838.17 132.45 C 840.56 133.54 842.50 135.47 843.58 137.89 C 843.84 139.59 843.98 141.32 844.01 143.05 C 844.02 242.03 844.01 341.02 844.02 440.01 C 844.00 442.02 843.89 444.04 843.62 446.05 C 842.59 448.30 840.86 450.20 838.67 451.36 C 835.17 452.26 831.55 451.98 827.99 452.01 C 782.97 452.03 737.94 451.98 692.91 452.04 C 692.85 422.68 692.96 393.33 692.86 363.97 C 693.18 354.19 692.18 344.36 693.49 334.63 C 694.85 325.36 692.67 316.09 691.02 307.01 C 690.63 304.14 690.59 301.17 689.30 298.51 C 686.65 290.30 691.50 282.19 691.87 273.98 C 692.32 263.87 692.79 253.58 690.47 243.65 C 687.20 228.08 680.04 213.36 669.81 201.18 C 664.20 193.50 656.68 187.55 649.04 182.02 C 630.27 169.10 606.85 162.89 584.15 165.24 C 578.50 166.11 574.85 160.66 571.78 156.83 C 570.41 148.60 569.69 140.29 570.14 131.95 Z" />
</g>
<g id="#427cd0ff">
<path fill="#427cd0" opacity="1.00" d=" M 164.51 136.78 C 168.76 137.05 173.21 136.08 177.30 137.63 C 178.56 140.09 178.86 143.12 177.25 145.50 C 172.98 145.44 168.71 145.49 164.44 145.49 C 164.40 142.59 164.43 139.68 164.51 136.78 Z" />
</g>
<g id="#417bcfff">
<path fill="#417bcf" opacity="1.00" d=" M 212.68 137.79 C 213.63 136.98 214.74 136.59 215.99 136.63 C 220.63 136.53 225.29 136.48 229.89 137.22 C 227.60 142.02 225.10 146.71 222.83 151.51 C 222.25 152.40 222.00 153.89 220.67 153.82 C 218.04 148.46 215.34 143.14 212.68 137.79 Z" />
</g>
<g id="#477fd1ff">
<path fill="#477fd1" opacity="1.00" d=" M 319.25 177.53 C 328.64 167.78 338.23 158.22 347.78 148.65 C 348.12 150.79 348.49 152.93 348.88 155.06 C 349.91 155.50 350.95 155.93 351.98 156.37 C 346.46 161.99 340.80 167.49 335.22 173.05 C 335.53 173.37 336.14 174.00 336.45 174.32 C 333.75 174.18 331.01 173.81 328.34 174.34 C 325.27 175.30 322.49 177.10 319.25 177.53 Z" />
</g>
<g id="#3c78ceff">
<path fill="#3c78ce" opacity="1.00" d=" M 164.48 152.65 C 168.76 152.64 173.03 152.70 177.31 152.63 C 179.26 157.67 177.91 163.20 178.34 168.47 C 177.50 166.99 176.66 165.52 175.83 164.05 C 172.03 163.85 168.23 163.80 164.43 163.93 C 164.42 160.17 164.43 156.41 164.48 152.65 Z" />
</g>
<g id="#c3d3e9ff">
<path fill="#c3d3e9" opacity="1.00" d=" M 571.78 156.83 C 574.85 160.66 578.50 166.11 584.15 165.24 C 606.85 162.89 630.27 169.10 649.04 182.02 C 656.68 187.55 664.20 193.50 669.81 201.18 C 680.04 213.36 687.20 228.08 690.47 243.65 C 692.79 253.58 692.32 263.87 691.87 273.98 C 691.50 282.19 686.65 290.30 689.30 298.51 C 688.89 301.21 687.42 303.48 685.51 305.36 C 684.47 304.31 683.44 303.26 682.41 302.22 C 681.50 303.00 680.67 303.87 679.68 304.54 C 677.90 304.28 676.29 303.39 674.63 302.75 C 672.18 295.04 671.29 286.80 672.91 278.81 C 674.69 271.33 674.38 263.61 674.24 255.99 C 673.49 245.08 669.29 234.84 665.40 224.74 C 663.88 218.48 661.37 212.43 658.07 206.90 C 657.60 205.77 657.25 204.59 656.63 203.53 C 652.49 197.74 648.48 191.69 643.00 187.07 C 640.62 185.84 638.84 183.85 636.87 182.11 C 628.62 176.77 619.77 171.91 610.03 170.02 C 601.90 167.60 593.33 168.38 584.97 168.36 C 581.03 168.23 577.34 169.74 573.51 170.38 C 572.82 165.88 572.10 161.38 571.78 156.83 Z" />
</g>
<g id="#43a047ff">
<path fill="#43a047" opacity="1.00" d=" M 573.51 170.38 C 577.34 169.74 581.03 168.23 584.97 168.36 C 593.33 168.38 601.90 167.60 610.03 170.02 C 619.77 171.91 628.62 176.77 636.87 182.11 C 638.84 183.85 640.62 185.84 643.00 187.07 C 648.48 191.69 652.49 197.74 656.63 203.53 C 657.25 204.59 657.60 205.77 658.07 206.90 C 661.37 212.43 663.88 218.48 665.40 224.74 C 666.20 230.82 667.72 236.83 667.31 243.02 C 667.72 248.88 665.59 254.47 665.41 260.29 C 662.08 269.51 658.13 278.64 652.15 286.49 C 646.33 293.78 639.67 300.70 631.31 305.04 C 631.60 305.03 632.18 305.01 632.48 305.00 C 628.21 307.34 623.93 309.65 619.63 311.93 C 606.73 316.70 592.65 317.50 579.10 315.83 C 576.14 314.68 572.63 315.30 569.95 313.58 C 567.99 313.47 566.03 313.43 564.09 313.39 C 562.36 309.41 557.89 308.61 554.67 306.29 C 545.23 300.01 536.26 292.55 530.43 282.68 C 528.93 280.01 527.35 277.39 525.70 274.82 C 522.66 267.68 520.04 260.28 519.10 252.54 C 517.40 235.61 519.25 217.10 529.92 203.19 C 534.48 196.46 539.62 190.06 546.03 184.99 C 549.63 181.05 554.41 178.70 559.02 176.20 C 563.51 173.50 568.69 172.35 573.51 170.38 M 617.59 214.52 C 609.20 222.80 600.45 230.69 591.98 238.88 C 588.35 241.72 585.64 245.96 581.06 247.41 C 576.49 243.53 571.58 240.01 567.62 235.46 C 563.62 230.89 555.97 230.22 551.58 234.59 C 546.90 238.55 546.87 246.47 551.29 250.64 C 556.95 256.30 563.08 261.50 568.70 267.21 C 571.57 269.60 574.03 272.64 577.45 274.28 C 581.12 275.34 585.54 275.16 588.50 272.46 C 598.03 264.34 606.58 255.15 616.14 247.08 C 622.46 240.11 630.22 234.58 636.29 227.40 C 640.93 220.89 635.82 210.80 627.91 210.50 C 623.95 209.66 620.51 212.21 617.59 214.52 Z" />
</g>
<g id="#f7f7f7ff">
<path fill="#f7f7f7" opacity="1.00" d=" M 528.05 205.43 C 528.68 204.69 529.30 203.95 529.92 203.19 C 519.25 217.10 517.40 235.61 519.10 252.54 C 520.04 260.28 522.66 267.68 525.70 274.82 C 524.76 278.96 526.77 282.80 528.22 286.55 C 531.32 294.84 535.78 302.69 541.58 309.40 C 547.75 315.68 553.68 322.81 562.08 326.14 C 562.57 327.99 561.91 330.81 564.16 331.65 C 566.88 332.70 569.89 332.22 572.75 332.41 C 587.31 338.27 603.48 340.50 618.97 337.45 C 619.28 381.63 618.60 425.85 619.26 470.01 C 619.02 471.63 618.54 473.21 618.18 474.81 C 615.93 471.87 613.77 468.85 611.14 466.23 C 608.07 469.77 605.30 473.69 602.12 477.04 C 598.84 473.69 596.71 469.35 593.04 466.34 C 590.09 469.84 587.51 473.69 584.01 476.69 C 580.64 473.59 578.26 469.64 575.19 466.28 C 571.73 469.76 569.25 474.16 565.37 477.22 C 563.06 473.20 560.20 469.52 557.06 466.13 C 553.66 469.67 551.41 474.34 547.30 477.15 C 544.94 473.21 541.86 469.80 538.89 466.32 C 535.77 469.79 532.82 473.41 530.04 477.17 C 526.51 473.95 523.84 469.97 520.95 466.21 C 517.68 469.60 514.69 473.27 512.08 477.19 C 508.04 474.34 506.56 468.80 501.92 466.75 C 499.25 470.29 496.24 473.58 493.86 477.34 C 490.32 473.94 487.85 469.60 484.19 466.31 C 481.15 469.91 478.55 473.88 475.27 477.28 C 472.73 473.95 470.20 470.60 467.48 467.41 C 467.15 467.37 466.48 467.27 466.14 467.23 C 462.30 469.43 460.70 474.57 457.02 476.91 C 453.96 473.54 451.45 469.72 448.45 466.29 C 445.90 468.89 443.58 471.70 441.43 474.64 C 440.66 475.54 440.04 476.85 438.67 476.84 C 436.15 473.60 433.62 470.36 431.16 467.07 C 430.19 467.35 428.96 467.24 428.37 468.23 C 425.82 471.20 423.55 474.42 420.97 477.36 C 418.01 473.59 415.12 469.75 411.91 466.19 C 409.18 469.58 406.30 472.83 403.53 476.19 C 403.31 463.82 403.49 451.44 403.46 439.07 C 403.40 434.62 403.99 430.06 402.44 425.78 C 403.22 416.20 402.84 406.58 402.94 396.98 C 402.80 386.22 403.06 375.45 402.75 364.69 C 402.70 362.69 402.67 360.68 402.68 358.68 C 402.68 356.58 402.69 354.48 402.70 352.40 C 402.70 350.37 402.71 348.34 402.75 346.32 C 402.99 340.01 402.99 333.69 402.76 327.39 C 402.71 325.38 402.68 323.38 402.67 321.38 C 402.66 319.21 402.66 317.05 402.68 314.89 C 402.70 312.98 402.75 311.07 402.77 309.17 C 402.79 306.88 402.76 304.59 402.74 302.31 C 402.71 300.41 402.72 298.52 402.76 296.64 C 403.29 286.01 402.32 275.35 403.38 264.74 C 403.58 244.97 403.43 225.19 403.44 205.42 C 419.29 205.07 435.15 205.37 451.00 205.27 C 476.68 205.38 502.37 205.06 528.05 205.43 M 426.38 239.35 C 423.00 241.51 425.22 246.68 428.97 246.37 C 448.31 246.38 467.65 246.34 486.99 246.40 C 488.76 246.38 490.78 246.41 492.07 244.95 C 493.85 242.61 492.41 238.19 488.98 238.60 C 469.65 238.47 450.31 238.67 430.98 238.54 C 429.47 238.75 427.55 238.16 426.38 239.35 M 426.35 256.45 C 422.98 258.45 425.25 264.09 428.99 263.49 C 451.63 263.45 474.29 263.57 496.93 263.43 C 501.34 262.87 500.63 255.22 496.04 255.63 C 474.35 255.49 452.66 255.71 430.97 255.56 C 429.40 255.63 427.67 255.42 426.35 256.45 M 427.92 298.14 C 451.26 298.43 474.63 298.12 497.98 298.30 C 500.29 298.40 503.01 298.26 504.48 296.15 C 505.16 293.99 504.40 291.91 502.75 290.46 C 477.85 290.36 452.94 290.36 428.05 290.46 C 423.87 290.92 423.73 297.44 427.92 298.14 M 426.32 308.27 C 423.05 310.42 425.30 315.56 428.95 315.34 C 442.96 315.38 456.97 315.30 470.98 315.38 C 472.48 315.32 474.16 315.48 475.37 314.38 C 478.21 312.52 476.57 307.24 473.04 307.52 C 459.01 307.44 444.98 307.57 430.95 307.46 C 429.43 307.67 427.52 307.09 426.32 308.27 M 424.67 329.08 C 425.22 330.95 426.86 332.64 428.95 332.39 C 447.63 332.46 466.32 332.44 485.01 332.38 C 486.15 331.11 487.86 329.94 487.53 327.99 C 487.00 326.01 485.27 324.17 483.07 324.56 C 465.04 324.49 447.01 324.54 428.98 324.55 C 426.57 324.35 424.36 326.71 424.67 329.08 M 425.50 360.39 C 423.19 362.77 425.87 367.02 428.96 366.57 C 449.74 366.50 470.53 366.78 491.31 366.40 C 493.68 363.85 493.29 358.70 489.02 358.76 C 469.71 358.58 450.37 358.82 431.05 358.65 C 429.12 358.67 426.67 358.50 425.50 360.39 M 564.23 359.08 C 560.66 360.51 561.95 367.01 565.95 366.54 C 575.27 366.56 584.62 366.72 593.94 366.43 C 597.72 365.92 597.79 359.59 593.99 358.90 C 586.37 358.40 578.70 358.90 571.06 358.68 C 568.79 358.78 566.40 358.31 564.23 359.08 M 426.45 376.61 C 423.05 378.49 425.19 384.36 429.03 383.58 C 451.36 383.60 473.70 383.60 496.04 383.57 C 498.43 384.02 499.43 381.67 500.53 380.07 C 499.68 378.54 499.14 376.20 496.99 376.17 C 489.34 375.01 481.62 376.68 473.95 376.10 C 469.65 375.78 465.33 375.61 461.03 376.02 C 454.70 376.60 448.37 375.51 442.03 375.81 C 436.85 376.04 431.51 375.20 426.45 376.61 M 563.60 376.56 C 561.35 378.30 562.12 381.48 563.63 383.44 C 573.44 383.77 583.27 383.57 593.08 383.56 C 596.96 384.03 598.22 377.72 594.70 376.38 C 590.93 375.07 586.90 376.24 583.02 376.06 C 576.55 375.66 570.01 375.75 563.60 376.56 M 576.64 402.61 C 574.28 403.46 571.49 403.60 569.69 405.55 C 567.03 408.67 567.00 413.23 567.93 417.00 C 569.03 420.78 572.86 422.61 576.55 422.72 C 576.52 424.58 576.49 426.45 576.47 428.33 C 573.45 428.32 570.43 428.34 567.41 428.37 C 567.43 430.66 567.46 432.96 567.51 435.27 C 570.54 435.25 573.58 435.29 576.63 435.37 C 576.56 436.78 576.50 438.19 576.45 439.61 C 578.09 439.57 579.74 439.53 581.40 439.51 C 581.34 438.16 581.30 436.81 581.26 435.47 C 583.70 434.77 586.66 434.53 588.21 432.22 C 591.27 428.60 590.79 423.27 588.82 419.26 C 587.45 416.43 584.22 415.56 581.33 415.49 C 581.31 413.73 581.29 411.98 581.28 410.23 C 584.30 410.02 587.70 411.04 590.41 409.28 C 590.36 407.33 590.36 405.39 590.39 403.45 C 587.41 403.34 584.43 403.30 581.45 403.35 C 581.43 402.10 581.37 400.86 581.27 399.63 C 580.48 397.68 578.10 398.83 576.56 398.56 C 576.58 399.90 576.60 401.25 576.64 402.61 M 435.41 406.50 C 430.47 408.57 426.13 412.54 425.21 418.03 C 422.44 427.62 431.12 438.40 441.07 437.73 C 463.70 437.89 486.33 437.58 508.96 437.84 C 518.36 438.45 527.12 429.38 525.82 419.99 C 525.14 412.19 517.92 405.41 509.99 405.70 C 488.65 405.72 467.30 405.60 445.96 405.66 C 442.45 405.80 438.74 405.16 435.41 406.50 Z" />
</g>
<g id="#fefefeff">
<path fill="#fefefe" opacity="1.00" d=" M 617.59 214.52 C 620.51 212.21 623.95 209.66 627.91 210.50 C 635.82 210.80 640.93 220.89 636.29 227.40 C 630.22 234.58 622.46 240.11 616.14 247.08 C 606.58 255.15 598.03 264.34 588.50 272.46 C 585.54 275.16 581.12 275.34 577.45 274.28 C 574.03 272.64 571.57 269.60 568.70 267.21 C 563.08 261.50 556.95 256.30 551.29 250.64 C 546.87 246.47 546.90 238.55 551.58 234.59 C 555.97 230.22 563.62 230.89 567.62 235.46 C 571.58 240.01 576.49 243.53 581.06 247.41 C 585.64 245.96 588.35 241.72 591.98 238.88 C 600.45 230.69 609.20 222.80 617.59 214.52 Z" />
</g>
<g id="#205fbbff">
<path fill="#205fbb" opacity="1.00" d=" M 381.90 251.89 C 389.53 242.56 391.48 229.24 401.77 222.01 C 402.27 230.31 402.05 238.64 402.25 246.95 C 402.20 252.66 402.72 258.39 402.09 264.09 C 390.07 264.38 378.04 263.80 366.01 263.77 C 372.04 260.99 378.10 257.51 381.90 251.89 Z" />
</g>
<g id="#b8c7dcff">
<path fill="#b8c7dc" opacity="1.00" d=" M 665.40 224.74 C 669.29 234.84 673.49 245.08 674.24 255.99 C 674.38 263.61 674.69 271.33 672.91 278.81 C 671.29 286.80 672.18 295.04 674.63 302.75 C 674.70 303.88 674.71 305.00 674.75 306.14 C 672.56 305.31 670.24 304.96 667.92 304.96 C 663.16 296.55 662.29 286.19 664.91 276.94 C 666.33 271.50 666.41 265.80 665.41 260.29 C 665.59 254.47 667.72 248.88 667.31 243.02 C 667.72 236.83 666.20 230.82 665.40 224.74 Z" />
</g>
<g id="#c3c3c3ff">
<path fill="#c3c3c3" opacity="1.00" d=" M 426.38 239.35 C 427.55 238.16 429.47 238.75 430.98 238.54 C 450.31 238.67 469.65 238.47 488.98 238.60 C 492.41 238.19 493.85 242.61 492.07 244.95 C 490.78 246.41 488.76 246.38 486.99 246.40 C 467.65 246.34 448.31 246.38 428.97 246.37 C 425.22 246.68 423.00 241.51 426.38 239.35 Z" />
<path fill="#c3c3c3" opacity="1.00" d=" M 427.92 298.14 C 423.73 297.44 423.87 290.92 428.05 290.46 C 452.94 290.36 477.85 290.36 502.75 290.46 C 504.40 291.91 505.16 293.99 504.48 296.15 C 503.01 298.26 500.29 298.40 497.98 298.30 C 474.63 298.12 451.26 298.43 427.92 298.14 Z" />
<path fill="#c3c3c3" opacity="1.00" d=" M 426.32 308.27 C 427.52 307.09 429.43 307.67 430.95 307.46 C 444.98 307.57 459.01 307.44 473.04 307.52 C 476.57 307.24 478.21 312.52 475.37 314.38 C 474.16 315.48 472.48 315.32 470.98 315.38 C 456.97 315.30 442.96 315.38 428.95 315.34 C 425.30 315.56 423.05 310.42 426.32 308.27 Z" />
<path fill="#c3c3c3" opacity="1.00" d=" M 295.32 309.52 C 305.53 308.95 315.79 309.46 326.02 309.22 C 327.55 309.24 329.10 309.24 330.62 309.50 C 332.81 310.88 331.85 315.30 328.96 314.67 C 318.29 314.65 307.62 314.81 296.95 314.63 C 294.11 315.20 293.38 310.97 295.32 309.52 Z" />
<path fill="#c3c3c3" opacity="1.00" d=" M 295.23 322.15 C 296.64 321.23 298.45 321.69 300.04 321.53 C 312.03 321.60 324.03 321.57 336.02 321.58 C 337.45 321.58 339.71 322.18 339.61 324.00 C 339.94 325.99 337.91 327.60 336.02 327.36 C 323.01 327.41 309.98 327.44 296.97 327.31 C 294.28 327.48 293.19 323.52 295.23 322.15 Z" />
<path fill="#c3c3c3" opacity="1.00" d=" M 424.67 329.08 C 424.36 326.71 426.57 324.35 428.98 324.55 C 447.01 324.54 465.04 324.49 483.07 324.56 C 485.27 324.17 487.00 326.01 487.53 327.99 C 487.86 329.94 486.15 331.11 485.01 332.38 C 466.32 332.44 447.63 332.46 428.95 332.39 C 426.86 332.64 425.22 330.95 424.67 329.08 Z" />
<path fill="#c3c3c3" opacity="1.00" d=" M 294.46 351.38 C 294.02 349.44 294.23 346.36 296.93 346.54 C 311.62 346.47 326.32 346.46 341.01 346.56 C 343.97 346.16 344.70 351.07 341.98 351.79 C 340.40 352.40 338.67 352.26 337.01 352.32 C 327.35 352.23 317.68 352.30 308.02 352.31 C 303.49 352.23 298.87 352.70 294.46 351.38 Z" />
<path fill="#c3c3c3" opacity="1.00" d=" M 294.46 359.54 C 296.29 359.13 298.14 358.71 300.03 358.71 C 314.03 358.71 328.02 358.78 342.02 358.70 C 344.22 358.63 346.39 359.06 348.52 359.59 C 348.85 361.62 348.95 364.62 346.04 364.45 C 329.69 364.57 313.32 364.51 296.96 364.47 C 293.94 364.76 294.24 361.56 294.46 359.54 Z" />
<path fill="#c3c3c3" opacity="1.00" d=" M 564.23 359.08 C 566.40 358.31 568.79 358.78 571.06 358.68 C 578.70 358.90 586.37 358.40 593.99 358.90 C 597.79 359.59 597.72 365.92 593.94 366.43 C 584.62 366.72 575.27 366.56 565.95 366.54 C 561.95 367.01 560.66 360.51 564.23 359.08 Z" />
</g>
<g id="#c4c4c4ff">
<path fill="#c4c4c4" opacity="1.00" d=" M 426.35 256.45 C 427.67 255.42 429.40 255.63 430.97 255.56 C 452.66 255.71 474.35 255.49 496.04 255.63 C 500.63 255.22 501.34 262.87 496.93 263.43 C 474.29 263.57 451.63 263.45 428.99 263.49 C 425.25 264.09 422.98 258.45 426.35 256.45 Z" />
<path fill="#c4c4c4" opacity="1.00" d=" M 425.50 360.39 C 426.67 358.50 429.12 358.67 431.05 358.65 C 450.37 358.82 469.71 358.58 489.02 358.76 C 493.29 358.70 493.68 363.85 491.31 366.40 C 470.53 366.78 449.74 366.50 428.96 366.57 C 425.87 367.02 423.19 362.77 425.50 360.39 Z" />
</g>
<g id="#afbed4ff">
<path fill="#afbed4" opacity="1.00" d=" M 665.41 260.29 C 666.41 265.80 666.33 271.50 664.91 276.94 C 662.29 286.19 663.16 296.55 667.92 304.96 C 664.94 304.96 661.97 305.01 659.00 305.01 C 655.41 299.37 653.80 292.88 652.15 286.49 C 658.13 278.64 662.08 269.51 665.41 260.29 Z" />
</g>
<g id="#ebebebff">
<path fill="#ebebeb" opacity="1.00" d=" M 278.23 265.76 C 279.76 265.32 281.30 264.76 282.93 264.74 C 323.08 264.73 363.23 264.76 403.38 264.74 C 402.32 275.35 403.29 286.01 402.76 296.64 C 399.91 296.59 397.06 296.80 394.27 297.37 C 394.37 299.03 393.69 301.51 395.81 302.19 C 398.08 302.69 400.43 302.34 402.74 302.31 C 402.76 304.59 402.79 306.88 402.77 309.17 C 399.97 309.25 397.18 309.36 394.38 309.50 C 394.36 311.15 394.37 312.81 394.41 314.47 C 397.16 314.62 399.92 314.76 402.68 314.89 C 402.66 317.05 402.66 319.21 402.67 321.38 C 400.13 321.55 397.49 321.28 395.03 322.04 C 393.52 323.30 393.72 326.92 396.12 327.11 C 398.31 327.51 400.54 327.37 402.76 327.39 C 402.99 333.69 402.99 340.01 402.75 346.32 C 400.16 346.44 397.51 346.25 394.99 346.92 C 393.79 348.14 394.43 350.04 394.27 351.56 C 397.05 352.08 399.87 352.36 402.70 352.40 C 402.69 354.48 402.68 356.58 402.68 358.68 C 399.87 358.65 397.06 358.90 394.30 359.40 C 394.36 361.04 394.43 362.68 394.50 364.34 C 397.25 364.45 400.00 364.57 402.75 364.69 C 403.06 375.45 402.80 386.22 402.94 396.98 C 402.84 406.58 403.22 416.20 402.44 425.78 C 400.28 427.70 398.56 430.02 396.99 432.42 C 394.85 430.20 392.85 427.85 391.11 425.30 C 390.71 425.33 389.91 425.39 389.51 425.41 C 387.56 427.48 385.72 429.64 383.95 431.86 C 381.46 430.24 379.71 427.83 378.06 425.42 C 377.65 425.40 376.84 425.37 376.43 425.35 C 374.44 427.50 372.51 429.72 370.36 431.71 C 368.07 429.80 366.19 427.49 364.42 425.12 C 364.02 425.19 363.23 425.34 362.83 425.41 C 361.14 427.72 359.28 429.92 357.15 431.83 C 354.81 429.55 352.64 427.09 350.90 424.31 C 348.62 426.83 346.44 429.43 344.05 431.84 C 341.70 429.61 339.31 427.35 337.83 424.41 C 335.41 426.73 333.45 429.47 330.98 431.74 C 328.83 429.82 326.90 427.68 325.12 425.42 C 324.77 425.39 324.06 425.32 323.71 425.29 C 321.89 427.55 319.92 429.68 317.83 431.69 C 315.34 429.54 313.42 426.82 310.82 424.80 C 308.48 427.04 306.89 431.50 302.96 430.72 C 301.48 428.45 299.74 426.38 297.92 424.38 C 295.97 426.92 293.82 429.32 291.55 431.60 C 289.27 429.76 287.39 427.52 285.50 425.31 C 285.12 425.32 284.38 425.35 284.00 425.36 C 282.41 427.29 280.98 430.04 278.03 429.72 C 278.20 388.12 277.99 346.50 278.12 304.89 C 278.20 291.85 278.09 278.81 278.23 265.76 M 294.39 301.58 C 297.76 302.94 301.44 302.33 304.98 302.41 C 318.96 302.43 332.94 302.36 346.92 302.46 C 348.47 302.37 350.27 302.66 351.48 301.44 C 353.30 299.73 351.49 296.34 349.06 296.72 C 331.71 296.79 314.34 296.65 296.98 296.76 C 294.26 296.62 294.08 299.60 294.39 301.58 M 295.32 309.52 C 293.38 310.97 294.11 315.20 296.95 314.63 C 307.62 314.81 318.29 314.65 328.96 314.67 C 331.85 315.30 332.81 310.88 330.62 309.50 C 329.10 309.24 327.55 309.24 326.02 309.22 C 315.79 309.46 305.53 308.95 295.32 309.52 M 295.23 322.15 C 293.19 323.52 294.28 327.48 296.97 327.31 C 309.98 327.44 323.01 327.41 336.02 327.36 C 337.91 327.60 339.94 325.99 339.61 324.00 C 339.71 322.18 337.45 321.58 336.02 321.58 C 324.03 321.57 312.03 321.60 300.04 321.53 C 298.45 321.69 296.64 321.23 295.23 322.15 M 294.46 351.38 C 298.87 352.70 303.49 352.23 308.02 352.31 C 317.68 352.30 327.35 352.23 337.01 352.32 C 338.67 352.26 340.40 352.40 341.98 351.79 C 344.70 351.07 343.97 346.16 341.01 346.56 C 326.32 346.46 311.62 346.47 296.93 346.54 C 294.23 346.36 294.02 349.44 294.46 351.38 M 294.46 359.54 C 294.24 361.56 293.94 364.76 296.96 364.47 C 313.32 364.51 329.69 364.57 346.04 364.45 C 348.95 364.62 348.85 361.62 348.52 359.59 C 346.39 359.06 344.22 358.63 342.02 358.70 C 328.02 358.78 314.03 358.71 300.03 358.71 C 298.14 358.71 296.29 359.13 294.46 359.54 M 305.32 376.36 C 295.06 378.22 289.32 391.27 294.99 400.04 C 297.66 406.13 304.83 408.24 310.97 408.10 C 332.64 407.95 354.32 408.06 376.00 408.13 C 379.18 408.12 382.46 407.82 385.34 406.35 C 393.91 402.21 396.97 389.55 390.68 382.23 C 387.77 378.22 382.93 375.89 377.99 375.97 C 355.00 375.96 331.99 375.95 308.99 375.94 C 307.75 375.97 306.52 376.10 305.32 376.36 Z" />
</g>
<g id="#e2e2e2ff">
<path fill="#e2e2e2" opacity="1.00" d=" M 528.22 286.55 C 526.77 282.80 524.76 278.96 525.70 274.82 C 527.35 277.39 528.93 280.01 530.43 282.68 C 536.26 292.55 545.23 300.01 554.67 306.29 C 557.89 308.61 562.36 309.41 564.09 313.39 C 566.03 313.43 567.99 313.47 569.95 313.58 C 572.63 315.30 576.14 314.68 579.10 315.83 C 592.65 317.50 606.73 316.70 619.63 311.93 C 619.98 321.95 619.02 332.01 620.22 341.99 C 620.88 351.00 618.92 359.98 620.27 368.95 C 620.37 389.99 620.27 411.03 620.28 432.06 C 620.15 443.38 620.79 454.73 619.73 466.01 C 619.32 469.40 620.98 473.00 619.13 476.16 C 618.90 475.82 618.42 475.14 618.18 474.81 C 618.54 473.21 619.02 471.63 619.26 470.01 C 618.60 425.85 619.28 381.63 618.97 337.45 C 603.48 340.50 587.31 338.27 572.75 332.41 C 579.84 332.29 586.97 332.72 594.05 332.23 C 597.78 331.59 597.67 325.19 593.97 324.69 C 587.66 324.19 581.32 324.64 574.99 324.53 C 570.67 324.69 565.98 323.75 562.08 326.14 C 553.68 322.81 547.75 315.68 541.58 309.40 C 535.78 302.69 531.32 294.84 528.22 286.55 Z" />
</g>
<g id="#a2b3ccff">
<path fill="#a2b3cc" opacity="1.00" d=" M 652.15 286.49 C 653.80 292.88 655.41 299.37 659.00 305.01 C 650.16 305.09 641.31 304.79 632.48 305.00 C 632.18 305.01 631.60 305.03 631.31 305.04 C 639.67 300.70 646.33 293.78 652.15 286.49 Z" />
</g>
<g id="#c2c2c2ff">
<path fill="#c2c2c2" opacity="1.00" d=" M 294.39 301.58 C 294.08 299.60 294.26 296.62 296.98 296.76 C 314.34 296.65 331.71 296.79 349.06 296.72 C 351.49 296.34 353.30 299.73 351.48 301.44 C 350.27 302.66 348.47 302.37 346.92 302.46 C 332.94 302.36 318.96 302.43 304.98 302.41 C 301.44 302.33 297.76 302.94 294.39 301.58 Z" />
<path fill="#c2c2c2" opacity="1.00" d=" M 394.38 309.50 C 397.18 309.36 399.97 309.25 402.77 309.17 C 402.75 311.07 402.70 312.98 402.68 314.89 C 399.92 314.76 397.16 314.62 394.41 314.47 C 394.37 312.81 394.36 311.15 394.38 309.50 Z" />
<path fill="#c2c2c2" opacity="1.00" d=" M 394.99 346.92 C 397.51 346.25 400.16 346.44 402.75 346.32 C 402.71 348.34 402.70 350.37 402.70 352.40 C 399.87 352.36 397.05 352.08 394.27 351.56 C 394.43 350.04 393.79 348.14 394.99 346.92 Z" />
<path fill="#c2c2c2" opacity="1.00" d=" M 394.30 359.40 C 397.06 358.90 399.87 358.65 402.68 358.68 C 402.67 360.68 402.70 362.69 402.75 364.69 C 400.00 364.57 397.25 364.45 394.50 364.34 C 394.43 362.68 394.36 361.04 394.30 359.40 Z" />
<path fill="#c2c2c2" opacity="1.00" d=" M 426.45 376.61 C 431.51 375.20 436.85 376.04 442.03 375.81 C 448.37 375.51 454.70 376.60 461.03 376.02 C 465.33 375.61 469.65 375.78 473.95 376.10 C 481.62 376.68 489.34 375.01 496.99 376.17 C 499.14 376.20 499.68 378.54 500.53 380.07 C 499.43 381.67 498.43 384.02 496.04 383.57 C 473.70 383.60 451.36 383.60 429.03 383.58 C 425.19 384.36 423.05 378.49 426.45 376.61 Z" />
<path fill="#c2c2c2" opacity="1.00" d=" M 563.60 376.56 C 570.01 375.75 576.55 375.66 583.02 376.06 C 586.90 376.24 590.93 375.07 594.70 376.38 C 598.22 377.72 596.96 384.03 593.08 383.56 C 583.27 383.57 573.44 383.77 563.63 383.44 C 562.12 381.48 561.35 378.30 563.60 376.56 Z" />
</g>
<g id="#c0c0c0ff">
<path fill="#c0c0c0" opacity="1.00" d=" M 394.27 297.37 C 397.06 296.80 399.91 296.59 402.76 296.64 C 402.72 298.52 402.71 300.41 402.74 302.31 C 400.43 302.34 398.08 302.69 395.81 302.19 C 393.69 301.51 394.37 299.03 394.27 297.37 Z" />
</g>
<g id="#bed3f0ff">
<path fill="#bed3f0" opacity="1.00" d=" M 689.30 298.51 C 690.59 301.17 690.63 304.14 691.02 307.01 C 692.67 316.09 694.85 325.36 693.49 334.63 C 692.18 344.36 693.18 354.19 692.86 363.97 C 692.96 393.33 692.85 422.68 692.91 452.04 C 688.30 452.05 683.69 452.09 679.09 452.09 C 678.99 407.72 679.04 363.35 679.08 318.99 C 679.37 314.33 679.05 308.96 674.75 306.14 C 674.71 305.00 674.70 303.88 674.63 302.75 C 676.29 303.39 677.90 304.28 679.68 304.54 C 680.67 303.87 681.50 303.00 682.41 302.22 C 683.44 303.26 684.47 304.31 685.51 305.36 C 687.42 303.48 688.89 301.21 689.30 298.51 Z" />
</g>
<g id="#35363aff">
<path fill="#35363a" opacity="1.00" d=" M 234.73 308.71 C 236.56 306.07 239.83 304.90 242.95 305.00 C 254.67 304.95 266.39 304.94 278.12 304.89 C 277.99 346.50 278.20 388.12 278.03 429.72 C 280.98 430.04 282.41 427.29 284.00 425.36 C 284.38 425.35 285.12 425.32 285.50 425.31 C 287.39 427.52 289.27 429.76 291.55 431.60 C 293.82 429.32 295.97 426.92 297.92 424.38 C 299.74 426.38 301.48 428.45 302.96 430.72 C 306.89 431.50 308.48 427.04 310.82 424.80 C 313.42 426.82 315.34 429.54 317.83 431.69 C 319.92 429.68 321.89 427.55 323.71 425.29 C 324.06 425.32 324.77 425.39 325.12 425.42 C 326.90 427.68 328.83 429.82 330.98 431.74 C 333.45 429.47 335.41 426.73 337.83 424.41 C 339.31 427.35 341.70 429.61 344.05 431.84 C 346.44 429.43 348.62 426.83 350.90 424.31 C 352.64 427.09 354.81 429.55 357.15 431.83 C 359.28 429.92 361.14 427.72 362.83 425.41 C 363.23 425.34 364.02 425.19 364.42 425.12 C 366.19 427.49 368.07 429.80 370.36 431.71 C 372.51 429.72 374.44 427.50 376.43 425.35 C 376.84 425.37 377.65 425.40 378.06 425.42 C 379.71 427.83 381.46 430.24 383.95 431.86 C 385.72 429.64 387.56 427.48 389.51 425.41 C 389.91 425.39 390.71 425.33 391.11 425.30 C 392.85 427.85 394.85 430.20 396.99 432.42 C 398.56 430.02 400.28 427.70 402.44 425.78 C 403.99 430.06 403.40 434.62 403.46 439.07 C 403.49 451.44 403.31 463.82 403.53 476.19 C 406.30 472.83 409.18 469.58 411.91 466.19 C 415.12 469.75 418.01 473.59 420.97 477.36 C 423.55 474.42 425.82 471.20 428.37 468.23 C 428.96 467.24 430.19 467.35 431.16 467.07 C 433.62 470.36 436.15 473.60 438.67 476.84 C 440.04 476.85 440.66 475.54 441.43 474.64 C 443.58 471.70 445.90 468.89 448.45 466.29 C 451.45 469.72 453.96 473.54 457.02 476.91 C 460.70 474.57 462.30 469.43 466.14 467.23 C 466.48 467.27 467.15 467.37 467.48 467.41 C 470.20 470.60 472.73 473.95 475.27 477.28 C 478.55 473.88 481.15 469.91 484.19 466.31 C 487.85 469.60 490.32 473.94 493.86 477.34 C 496.24 473.58 499.25 470.29 501.92 466.75 C 506.56 468.80 508.04 474.34 512.08 477.19 C 514.69 473.27 517.68 469.60 520.95 466.21 C 523.84 469.97 526.51 473.95 530.04 477.17 C 532.82 473.41 535.77 469.79 538.89 466.32 C 541.86 469.80 544.94 473.21 547.30 477.15 C 551.41 474.34 553.66 469.67 557.06 466.13 C 560.20 469.52 563.06 473.20 565.37 477.22 C 569.25 474.16 571.73 469.76 575.19 466.28 C 578.26 469.64 580.64 473.59 584.01 476.69 C 587.51 473.69 590.09 469.84 593.04 466.34 C 596.71 469.35 598.84 473.69 602.12 477.04 C 605.30 473.69 608.07 469.77 611.14 466.23 C 613.77 468.85 615.93 471.87 618.18 474.81 C 618.42 475.14 618.90 475.82 619.13 476.16 C 620.98 473.00 619.32 469.40 619.73 466.01 C 620.79 454.73 620.15 443.38 620.28 432.06 C 620.27 411.03 620.37 389.99 620.27 368.95 C 618.92 359.98 620.88 351.00 620.22 341.99 C 619.02 332.01 619.98 321.95 619.63 311.93 C 623.93 309.65 628.21 307.34 632.48 305.00 C 641.31 304.79 650.16 305.09 659.00 305.01 C 661.97 305.01 664.94 304.96 667.92 304.96 C 670.24 304.96 672.56 305.31 674.75 306.14 C 679.05 308.96 679.37 314.33 679.08 318.99 C 679.04 363.35 678.99 407.72 679.09 452.09 C 678.95 504.71 679.07 557.33 679.01 609.96 C 679.01 613.90 679.24 617.90 678.35 621.79 C 676.86 624.42 674.31 626.50 671.27 626.93 C 564.52 627.14 457.77 626.97 351.02 627.03 C 314.24 626.97 277.47 627.13 240.69 626.94 C 236.51 626.33 233.08 622.60 232.98 618.35 C 232.98 571.00 233.00 523.64 232.97 476.28 C 232.99 472.87 232.98 469.46 232.99 466.05 C 233.01 417.38 233.01 368.71 232.98 320.04 C 233.13 316.26 232.32 311.98 234.73 308.71 M 397.27 540.05 C 398.10 540.97 398.91 541.94 399.89 542.74 C 401.28 542.54 402.12 541.15 403.25 540.44 C 402.37 539.44 401.50 538.40 400.43 537.60 C 398.98 537.65 398.30 539.24 397.27 540.05 M 495.96 539.11 C 496.63 546.21 496.89 553.35 496.38 560.48 C 497.70 560.60 499.02 560.73 500.36 560.86 C 500.78 553.40 500.83 545.88 499.84 538.46 C 498.54 538.67 497.24 538.89 495.96 539.11 M 476.09 543.01 C 477.07 544.00 478.06 544.99 479.06 545.99 C 480.10 544.99 481.14 544.00 482.19 543.02 C 481.15 541.98 480.11 540.94 479.09 539.91 C 478.08 540.94 477.08 541.97 476.09 543.01 M 382.75 543.99 C 383.81 544.97 384.85 545.96 385.91 546.96 C 386.47 546.44 387.59 545.39 388.15 544.87 C 388.63 545.38 389.59 546.40 390.07 546.91 C 391.16 545.93 393.50 545.11 392.93 543.27 C 392.20 542.24 391.12 541.58 390.14 540.85 C 389.65 541.36 388.66 542.38 388.17 542.89 C 387.60 542.36 386.46 541.31 385.89 540.78 C 384.81 541.81 383.76 542.88 382.75 543.99 M 395.18 552.02 C 395.48 554.52 398.37 555.24 400.37 556.00 C 398.51 556.11 396.67 556.27 394.83 556.46 C 394.16 553.96 393.77 551.09 391.61 549.37 C 389.84 547.40 386.19 547.40 384.64 549.62 C 382.87 552.01 381.70 555.70 383.79 558.26 C 385.32 560.30 388.10 560.25 390.39 560.52 C 389.04 564.73 382.99 566.28 380.15 562.72 C 377.60 559.89 379.85 556.11 381.08 553.22 C 379.79 552.68 378.48 552.19 377.15 551.79 C 375.27 555.75 374.01 560.67 376.43 564.70 C 379.02 568.78 384.73 569.57 388.94 567.85 C 391.97 566.50 393.64 563.44 394.50 560.39 C 396.89 560.33 399.33 560.29 401.61 559.49 C 408.51 557.58 407.09 546.11 400.89 544.24 C 396.86 543.81 394.41 548.52 395.18 552.02 M 452.32 546.00 C 453.07 546.81 453.86 547.59 454.67 548.36 C 455.73 549.77 456.87 547.53 457.75 547.06 C 458.51 547.75 459.27 548.44 460.05 549.15 C 461.03 548.12 462.01 547.08 462.99 546.06 C 462.01 545.08 461.02 544.10 460.04 543.13 C 458.82 544.73 457.49 544.95 456.07 543.78 C 454.41 542.38 453.54 545.36 452.32 546.00 M 506.43 548.45 C 508.88 550.36 511.22 552.85 511.48 556.12 C 508.71 556.96 505.89 556.44 503.20 555.66 C 502.82 556.92 502.45 558.20 502.10 559.48 C 505.27 560.41 508.76 561.23 511.99 560.03 C 514.48 559.30 516.06 556.44 515.27 553.95 C 514.15 549.65 510.88 546.08 506.92 544.17 C 506.65 545.50 504.61 547.40 506.43 548.45 M 446.24 546.98 C 445.12 549.61 444.41 552.65 445.49 555.42 C 446.64 557.95 449.25 559.47 451.92 559.91 C 457.11 560.84 462.95 560.66 467.42 557.53 C 469.80 560.90 474.33 560.50 477.97 560.27 C 483.78 559.81 488.80 556.65 494.00 554.34 C 493.79 553.17 493.59 552.02 493.39 550.87 C 488.66 550.39 484.78 546.84 479.96 547.01 C 477.10 547.53 475.48 550.18 473.92 552.36 C 475.08 553.09 476.29 553.76 477.53 554.38 C 478.60 553.17 479.26 551.06 481.15 550.95 C 482.98 551.42 484.67 552.29 486.38 553.10 C 482.26 555.90 476.94 557.05 472.06 556.12 C 469.63 555.19 470.87 552.35 470.96 550.45 C 469.76 550.16 468.57 549.88 467.38 549.61 C 466.48 552.24 464.97 555.14 461.97 555.75 C 458.11 556.62 453.59 556.99 450.07 554.86 C 447.90 553.27 449.24 550.56 449.90 548.57 C 448.68 548.02 447.46 547.49 446.24 546.98 M 532.12 548.24 C 532.93 550.42 534.07 552.58 534.09 554.96 C 533.29 556.84 530.62 556.34 528.96 556.43 C 525.77 556.52 524.97 552.97 523.89 550.71 C 522.63 551.01 521.38 551.33 520.14 551.66 C 520.75 554.72 522.80 558.02 521.10 561.06 C 519.69 563.75 516.88 565.19 514.38 566.69 C 514.95 567.81 515.53 568.94 516.11 570.08 C 520.71 568.48 524.61 564.79 525.91 560.03 C 529.69 560.39 534.95 561.34 537.34 557.55 C 538.95 554.02 537.40 550.15 535.96 546.85 C 534.66 547.25 533.38 547.72 532.12 548.24 M 407.65 557.54 C 408.91 559.93 411.81 560.07 414.16 560.50 C 412.17 562.74 409.78 564.57 407.24 566.15 C 407.89 567.34 408.54 568.51 409.20 569.72 C 413.09 567.50 416.70 564.56 418.69 560.46 C 420.98 560.44 423.24 559.93 425.19 558.67 C 427.23 559.52 429.64 560.85 431.86 559.80 C 436.76 557.25 434.91 547.67 428.97 548.18 C 423.85 548.57 424.72 556.76 419.13 556.55 C 418.62 553.26 417.49 549.24 413.97 548.06 C 408.80 546.72 405.82 553.51 407.65 557.54 M 527.92 564.67 C 530.10 566.39 531.24 568.99 533.09 571.01 C 535.57 569.68 536.14 566.83 537.85 564.80 C 538.55 561.93 534.43 560.58 533.09 563.30 C 532.54 562.80 531.44 561.80 530.89 561.31 C 529.72 562.26 528.62 563.31 527.92 564.67 Z" />
<path fill="#35363a" opacity="1.00" d=" M 398.68 551.08 C 399.23 550.01 399.82 548.99 400.46 547.99 C 401.08 549.38 401.68 550.78 402.27 552.20 C 401.06 551.82 399.87 551.45 398.68 551.08 Z" />
<path fill="#35363a" opacity="1.00" d=" M 386.73 556.02 C 386.80 554.34 387.06 552.58 388.63 551.65 C 389.49 553.19 390.17 554.83 390.65 556.54 C 389.34 556.37 388.03 556.19 386.73 556.02 Z" />
<path fill="#35363a" opacity="1.00" d=" M 412.28 551.64 C 413.95 552.79 414.67 554.67 415.00 556.61 C 413.47 556.48 411.92 556.25 410.77 555.15 C 411.27 553.97 411.77 552.80 412.28 551.64 Z" />
<path fill="#35363a" opacity="1.00" d=" M 427.32 555.11 C 428.11 554.01 428.93 552.96 429.78 551.93 C 430.20 553.35 431.47 555.22 429.69 556.25 C 429.10 555.96 427.92 555.39 427.32 555.11 Z" />
</g>
<g id="#c1c1c1ff">
<path fill="#c1c1c1" opacity="1.00" d=" M 395.03 322.04 C 397.49 321.28 400.13 321.55 402.67 321.38 C 402.68 323.38 402.71 325.38 402.76 327.39 C 400.54 327.37 398.31 327.51 396.12 327.11 C 393.72 326.92 393.52 323.30 395.03 322.04 Z" />
</g>
<g id="#b2b2b3ff">
<path fill="#b2b2b3" opacity="1.00" d=" M 562.08 326.14 C 565.98 323.75 570.67 324.69 574.99 324.53 C 581.32 324.64 587.66 324.19 593.97 324.69 C 597.67 325.19 597.78 331.59 594.05 332.23 C 586.97 332.72 579.84 332.29 572.75 332.41 C 569.89 332.22 566.88 332.70 564.16 331.65 C 561.91 330.81 562.57 327.99 562.08 326.14 Z" />
</g>
<g id="#e0e0e0ff">
<path fill="#e0e0e0" opacity="1.00" d=" M 305.32 376.36 C 306.52 376.10 307.75 375.97 308.99 375.94 C 331.99 375.95 355.00 375.96 377.99 375.97 C 382.93 375.89 387.77 378.22 390.68 382.23 C 396.97 389.55 393.91 402.21 385.34 406.35 C 382.46 407.82 379.18 408.12 376.00 408.13 C 354.32 408.06 332.64 407.95 310.97 408.10 C 304.83 408.24 297.66 406.13 294.99 400.04 C 289.32 391.27 295.06 378.22 305.32 376.36 Z" />
</g>
<g id="#f15a60ff">
<path fill="#f15a60" opacity="1.00" d=" M 576.64 402.61 C 576.60 401.25 576.58 399.90 576.56 398.56 C 578.10 398.83 580.48 397.68 581.27 399.63 C 581.37 400.86 581.43 402.10 581.45 403.35 C 584.43 403.30 587.41 403.34 590.39 403.45 C 590.36 405.39 590.36 407.33 590.41 409.28 C 587.70 411.04 584.30 410.02 581.28 410.23 C 581.29 411.98 581.31 413.73 581.33 415.49 C 584.22 415.56 587.45 416.43 588.82 419.26 C 590.79 423.27 591.27 428.60 588.21 432.22 C 586.66 434.53 583.70 434.77 581.26 435.47 C 581.30 436.81 581.34 438.16 581.40 439.51 C 579.74 439.53 578.09 439.57 576.45 439.61 C 576.50 438.19 576.56 436.78 576.63 435.37 C 573.58 435.29 570.54 435.25 567.51 435.27 C 567.46 432.96 567.43 430.66 567.41 428.37 C 570.43 428.34 573.45 428.32 576.47 428.33 C 576.49 426.45 576.52 424.58 576.55 422.72 C 572.86 422.61 569.03 420.78 567.93 417.00 C 567.00 413.23 567.03 408.67 569.69 405.55 C 571.49 403.60 574.28 403.46 576.64 402.61 M 574.39 410.54 C 574.36 412.16 574.39 413.80 574.48 415.44 C 575.03 415.48 576.11 415.57 576.66 415.61 C 576.65 413.82 576.65 412.03 576.67 410.25 C 576.10 410.32 574.96 410.46 574.39 410.54 M 580.71 423.22 C 580.71 424.72 580.72 426.22 580.73 427.73 C 581.61 427.68 582.50 427.63 583.39 427.59 C 583.38 426.17 583.38 424.76 583.39 423.35 C 582.49 423.30 581.60 423.26 580.71 423.22 Z" />
</g>
<g id="#e8e8e8ff">
<path fill="#e8e8e8" opacity="1.00" d=" M 435.41 406.50 C 438.74 405.16 442.45 405.80 445.96 405.66 C 467.30 405.60 488.65 405.72 509.99 405.70 C 517.92 405.41 525.14 412.19 525.82 419.99 C 527.12 429.38 518.36 438.45 508.96 437.84 C 486.33 437.58 463.70 437.89 441.07 437.73 C 431.12 438.40 422.44 427.62 425.21 418.03 C 426.13 412.54 430.47 408.57 435.41 406.50 Z" />
</g>
<g id="#fde4dcff">
<path fill="#fde4dc" opacity="1.00" d=" M 574.39 410.54 C 574.96 410.46 576.10 410.32 576.67 410.25 C 576.65 412.03 576.65 413.82 576.66 415.61 C 576.11 415.57 575.03 415.48 574.48 415.44 C 574.39 413.80 574.36 412.16 574.39 410.54 Z" />
<path fill="#fde4dc" opacity="1.00" d=" M 580.71 423.22 C 581.60 423.26 582.49 423.30 583.39 423.35 C 583.38 424.76 583.38 426.17 583.39 427.59 C 582.50 427.63 581.61 427.68 580.73 427.73 C 580.72 426.22 580.71 424.72 580.71 423.22 Z" />
</g>
<g id="#030d1b22">
<path fill="#030d1b" opacity="0.13" d=" M 68.70 466.00 C 120.06 466.03 171.43 465.99 222.80 466.03 C 226.47 469.15 229.90 472.56 232.97 476.28 C 233.00 523.64 232.98 571.00 232.98 618.35 C 229.85 612.82 228.85 606.34 228.61 600.07 C 228.74 565.05 228.60 530.02 228.68 495.00 C 228.57 488.70 227.59 481.71 222.84 477.11 C 218.00 471.40 209.99 470.35 202.95 470.30 C 165.62 470.38 128.29 470.33 90.96 470.35 C 83.40 470.49 75.37 469.89 68.70 466.00 Z" />
</g>
<g id="#06162d39">
<path fill="#06162d" opacity="0.22" d=" M 222.80 466.03 C 226.19 465.99 229.59 466.01 232.99 466.05 C 232.98 469.46 232.99 472.87 232.97 476.28 C 229.90 472.56 226.47 469.15 222.80 466.03 Z" />
</g>
</svg>
