<?xml version="1.0" encoding="UTF-8" ?>
<!DOCTYPE svg PUBLIC "-//W3C//DTD SVG 1.1//EN" "http://www.w3.org/Graphics/SVG/1.1/DTD/svg11.dtd">
<svg width="70pt" height="70pt" viewBox="0 0 70 70" version="1.1" xmlns="http://www.w3.org/2000/svg">
<g id="#e53935ff">
<path fill="#e53935" opacity="1.00" d=" M 12.22 5.09 C 12.61 5.10 13.40 5.13 13.80 5.15 C 21.00 11.94 27.91 19.05 34.99 25.97 C 42.12 19.04 49.00 11.84 56.30 5.11 C 56.68 5.11 57.45 5.11 57.84 5.12 C 60.39 7.23 62.68 9.70 64.84 12.21 C 64.83 12.60 64.81 13.37 64.80 13.76 C 58.04 21.04 50.75 27.82 43.78 34.91 C 51.14 42.26 58.47 49.63 65.79 57.03 C 62.97 60.03 60.16 63.03 57.10 65.78 C 49.70 58.47 42.38 51.10 34.98 43.79 C 27.64 51.12 20.44 58.57 13.00 65.80 C 10.40 63.11 7.55 60.65 5.21 57.73 C 4.84 56.43 5.90 55.57 6.68 54.74 C 13.25 48.13 19.73 41.44 26.36 34.89 C 19.60 28.19 12.76 21.58 6.07 14.83 C 5.04 14.08 4.63 12.41 5.71 11.51 C 7.80 9.30 9.80 6.95 12.22 5.09 Z" />
</g>
</svg>
