<?xml version="1.0" encoding="UTF-8" ?>
<!DOCTYPE svg PUBLIC "-//W3C//DTD SVG 1.1//EN" "http://www.w3.org/Graphics/SVG/1.1/DTD/svg11.dtd">
<svg width="70pt" height="70pt" viewBox="0 0 70 70" version="1.1" xmlns="http://www.w3.org/2000/svg">
<g id="#efefefff">
<path fill="#efefef" opacity="1.00" d=" M 8.35 11.41 C 21.86 10.47 35.45 11.26 49.00 11.00 C 53.21 11.11 57.47 10.62 61.65 11.31 C 63.94 12.52 62.65 15.57 62.65 17.59 C 52.13 18.52 41.54 17.75 31.00 18.00 C 23.79 17.79 16.53 18.45 9.35 17.70 C 7.05 16.43 8.36 13.46 8.35 11.41 Z" />
<path fill="#efefef" opacity="1.00" d=" M 8.18 32.39 C 9.72 30.26 12.73 31.25 14.96 30.96 C 30.85 31.32 46.79 30.43 62.65 31.41 C 62.76 33.56 64.05 37.47 60.84 37.85 C 45.56 38.25 30.26 37.83 14.97 38.04 C 12.89 37.88 10.54 38.38 8.66 37.27 C 7.64 35.89 7.93 33.98 8.18 32.39 Z" />
<path fill="#efefef" opacity="1.00" d=" M 9.37 51.36 C 11.19 50.87 13.10 51.00 14.97 50.95 C 29.34 51.05 43.70 50.99 58.07 50.97 C 59.71 51.13 61.82 50.70 62.81 52.39 C 63.46 54.63 63.18 58.34 59.97 57.94 C 44.30 58.11 28.61 57.92 12.93 58.03 C 11.19 57.92 8.17 58.28 8.04 55.79 C 7.98 54.36 7.61 51.84 9.37 51.36 Z" />
</g>
</svg>
