<?xml version="1.0" encoding="UTF-8" ?>
<!DOCTYPE svg PUBLIC "-//W3C//DTD SVG 1.1//EN" "http://www.w3.org/Graphics/SVG/1.1/DTD/svg11.dtd">
<svg width="50pt" height="50pt" viewBox="0 0 50 50" version="1.1" xmlns="http://www.w3.org/2000/svg">
<g id="#f8f8f8f8">
<path fill="#f8f8f8" opacity="0.97" d=" M 15.04 7.37 C 15.01 5.06 16.18 2.03 18.92 2.09 C 24.54 2.16 30.22 1.76 35.81 2.30 C 38.86 4.98 41.43 8.16 44.55 10.76 C 44.53 19.28 44.51 27.80 44.57 36.31 C 42.85 39.19 39.56 39.05 36.63 38.91 C 36.50 40.64 35.87 42.25 35.05 43.76 C 26.30 44.05 17.53 43.82 8.78 43.88 C 7.88 42.41 6.99 40.83 7.22 39.04 C 7.35 29.44 7.02 19.82 7.38 10.24 C 8.26 6.72 12.29 7.39 15.04 7.37 M 17.53 7.36 C 20.91 7.49 24.30 7.22 27.67 7.50 C 30.86 10.03 33.44 13.25 36.40 16.04 C 36.44 22.80 36.37 29.55 36.44 36.31 C 38.07 36.26 39.70 36.22 41.34 36.18 C 41.64 28.35 41.39 20.51 41.47 12.67 C 39.56 12.57 37.55 12.89 35.70 12.28 C 32.96 10.74 33.74 7.26 33.62 4.66 C 28.61 4.67 23.60 4.75 18.59 4.61 C 18.32 5.30 17.80 6.67 17.53 7.36 M 36.23 6.82 C 35.83 9.17 37.33 10.45 39.67 10.28 C 38.69 8.96 37.59 7.74 36.23 6.82 M 10.20 10.23 C 10.06 19.16 10.21 28.09 10.12 37.01 C 10.34 38.46 9.67 40.27 10.69 41.48 C 18.28 41.70 25.89 41.57 33.48 41.51 C 33.85 33.64 33.62 25.74 33.60 17.86 C 31.34 17.65 28.32 18.62 26.70 16.50 C 25.10 14.76 25.84 12.24 25.67 10.11 C 20.51 10.20 15.36 10.04 10.20 10.23 M 28.43 11.93 C 27.83 14.06 29.25 16.15 31.75 15.37 C 30.68 14.18 29.59 13.02 28.43 11.93 Z" />
<path fill="#f8f8f8" opacity="0.97" d=" M 12.02 22.05 C 13.33 19.87 15.91 20.56 18.00 20.47 C 22.15 20.59 26.31 20.32 30.46 20.58 C 31.74 21.58 30.72 23.60 29.16 23.22 C 24.07 23.13 18.94 23.48 13.88 23.04 C 13.41 22.79 12.48 22.30 12.02 22.05 Z" />
<path fill="#f8f8f8" opacity="0.97" d=" M 12.85 25.90 C 18.59 25.57 24.40 25.56 30.13 25.89 L 31.54 26.98 C 30.38 29.13 27.86 28.20 25.96 28.41 C 21.58 28.25 17.17 28.68 12.80 28.18 C 12.81 27.61 12.84 26.47 12.85 25.90 Z" />
<path fill="#f8f8f8" opacity="0.97" d=" M 12.73 33.27 C 11.41 31.04 14.70 30.82 16.04 30.86 C 18.65 30.89 21.48 30.50 23.82 31.96 C 23.48 32.32 22.80 33.05 22.45 33.42 C 19.24 33.71 15.92 33.85 12.73 33.27 Z" />
</g>
</svg>
