<?xml version="1.0" encoding="UTF-8" ?>
<!DOCTYPE svg PUBLIC "-//W3C//DTD SVG 1.1//EN" "http://www.w3.org/Graphics/SVG/1.1/DTD/svg11.dtd">
<svg width="70pt" height="70pt" viewBox="0 0 70 70" version="1.1" xmlns="http://www.w3.org/2000/svg">
<g id="#010101ff">
<path fill="#fff" opacity="1.00" d=" M 47.21 19.75 C 43.59 18.11 45.85 12.61 49.23 12.26 C 51.67 11.59 53.09 14.15 54.62 15.53 C 52.68 17.53 50.51 21.46 47.21 19.75 Z" />
<path fill="#fff" opacity="1.00" d=" M 42.50 23.38 C 43.27 21.37 45.97 21.18 47.54 22.34 C 49.70 24.01 51.24 26.31 53.05 28.32 C 55.04 27.69 56.96 26.68 59.07 26.51 C 61.87 26.32 60.14 29.51 58.49 29.72 C 56.49 30.71 54.35 31.57 52.10 31.73 C 50.35 31.43 49.20 29.79 47.80 28.81 C 47.24 30.79 46.65 32.76 46.07 34.73 C 48.45 36.08 52.51 36.63 52.85 39.87 C 51.86 43.82 50.79 48.18 47.97 51.24 C 47.38 51.26 46.19 51.28 45.59 51.30 C 45.43 47.67 47.58 44.43 48.50 41.00 C 45.14 39.68 41.81 38.31 38.46 36.99 C 39.69 32.42 40.81 27.80 42.50 23.38 Z" />
<path fill="#fff" opacity="1.00" d=" M 3.43 24.54 C 14.90 24.31 26.37 24.40 37.84 24.49 C 37.51 28.83 36.59 33.09 36.00 37.40 C 31.00 38.56 25.85 37.97 20.77 38.09 C 20.44 37.64 19.78 36.74 19.44 36.29 C 15.03 36.34 10.62 36.36 6.20 36.28 C 6.29 35.37 6.41 34.48 6.55 33.58 C 11.11 32.80 15.77 33.38 20.37 33.24 C 20.49 32.57 20.74 31.25 20.86 30.59 C 24.33 30.57 27.79 30.57 31.25 30.56 C 31.53 29.85 32.10 28.42 32.38 27.71 C 22.67 27.29 12.94 27.68 3.22 27.49 C 3.30 26.50 3.37 25.52 3.43 24.54 Z" />
<path fill="#fff" opacity="1.00" d=" M 57.59 31.67 C 59.89 30.35 62.26 32.44 64.52 32.95 C 64.78 35.30 63.30 36.61 61.11 37.23 C 63.20 40.52 68.51 40.41 69.07 44.93 C 65.70 44.54 62.38 43.18 58.95 43.98 C 61.51 45.86 65.56 44.73 67.37 47.77 C 70.42 52.84 65.49 59.49 60.08 59.82 C 57.67 60.07 55.69 58.22 54.56 56.29 C 53.16 53.28 54.72 50.07 56.18 47.42 L 57.57 48.47 C 57.00 47.65 56.41 46.84 55.79 46.05 C 54.03 48.59 52.68 51.37 51.46 54.20 C 47.49 54.17 43.52 54.15 39.55 54.25 C 37.22 50.66 36.17 45.13 31.39 44.00 C 27.55 42.97 24.35 46.07 21.43 48.04 C 21.86 46.31 22.29 44.58 22.72 42.86 C 15.16 42.84 7.60 42.98 0.05 42.77 C 0.16 40.81 1.12 39.83 2.93 39.83 C 13.96 39.69 24.99 39.96 36.02 39.77 C 38.67 39.69 41.30 40.12 43.87 40.74 C 43.20 42.81 41.27 43.88 39.62 45.07 C 40.21 47.34 40.83 49.61 41.43 51.88 C 44.22 51.88 47.00 51.88 49.79 51.86 C 51.69 47.21 54.88 43.29 58.77 40.16 C 58.35 37.34 57.81 34.52 57.59 31.67 M 59.17 48.78 C 56.85 50.30 55.52 54.21 58.24 56.02 C 61.78 58.48 67.10 53.63 65.02 49.92 C 64.12 47.63 60.99 47.83 59.17 48.78 Z" />
<path fill="#fff" opacity="1.00" d=" M 26.19 46.02 C 29.09 44.46 33.34 45.07 34.92 48.20 C 38.50 54.54 28.86 63.55 23.27 58.10 C 19.38 54.55 21.76 47.93 26.19 46.02 M 26.55 48.77 C 23.84 50.24 23.08 55.21 26.40 56.41 C 30.05 57.75 34.06 53.44 32.45 49.89 C 31.53 47.67 28.34 47.80 26.55 48.77 Z" />
</g>
</svg>
