<?xml version="1.0" encoding="UTF-8" ?>
<!DOCTYPE svg PUBLIC "-//W3C//DTD SVG 1.1//EN" "http://www.w3.org/Graphics/SVG/1.1/DTD/svg11.dtd">
<svg width="50pt" height="50pt" viewBox="0 0 50 50" version="1.1" xmlns="http://www.w3.org/2000/svg">
<g id="#fdfdfdfd">
<path fill="#fdfdfd" opacity="1.00" d=" M 8.37 15.56 C 10.24 15.06 11.95 13.85 13.98 14.11 C 21.62 14.19 29.27 14.06 36.91 14.18 C 35.50 15.28 34.03 16.71 32.09 16.54 C 26.10 16.42 20.08 16.83 14.12 16.34 L 12.86 15.47 C 12.42 15.96 11.97 16.43 11.52 16.90 C 16.09 18.36 19.52 22.04 23.90 23.84 C 29.15 21.23 33.72 17.34 39.04 14.85 C 40.41 20.10 39.40 25.60 39.73 30.97 C 39.62 32.94 40.21 35.91 37.84 36.79 C 29.91 37.17 21.95 36.81 14.00 36.96 C 12.24 36.85 10.26 37.28 8.73 36.16 C 7.76 34.24 8.13 32.03 8.06 29.96 C 8.18 25.16 7.79 20.34 8.37 15.56 M 11.55 20.96 C 11.60 25.54 11.63 30.11 11.55 34.69 C 19.79 34.65 28.04 34.85 36.27 34.57 C 36.17 30.05 36.20 25.52 36.26 21.00 C 31.86 22.99 27.97 25.96 23.92 28.59 C 19.80 26.05 15.90 23.10 11.55 20.96 Z" />
</g>
</svg>
