<?xml version="1.0" encoding="UTF-8" ?>
<!DOCTYPE svg PUBLIC "-//W3C//DTD SVG 1.1//EN" "http://www.w3.org/Graphics/SVG/1.1/DTD/svg11.dtd">
<svg width="100pt" height="100pt" viewBox="0 0 100 100" version="1.1" xmlns="http://www.w3.org/2000/svg">
<g id="#ffffffff">
<path fill="#ffffff" opacity="1.00" d=" M 18.56 10.01 C 19.80 5.55 24.12 1.80 28.91 2.14 C 48.31 2.15 67.70 2.11 87.10 2.15 C 92.23 2.08 97.12 6.67 96.96 11.89 C 97.06 15.95 97.15 20.01 96.91 24.07 C 96.96 25.49 95.50 26.25 94.74 27.26 C 93.54 26.20 92.34 25.12 91.16 24.04 C 89.78 24.94 88.58 26.33 86.93 26.69 C 85.44 26.07 84.24 24.94 82.95 24.00 C 82.12 24.83 81.29 25.66 80.46 26.48 C 80.52 49.50 80.39 72.51 80.53 95.53 C 79.05 96.73 77.39 97.65 75.60 98.29 C 74.69 97.21 73.79 96.13 72.88 95.05 C 71.95 95.99 71.01 96.94 70.08 97.88 C 69.41 97.85 68.08 97.79 67.41 97.76 C 66.65 96.92 65.90 96.08 65.14 95.25 C 64.06 96.09 63.05 97.04 61.87 97.75 C 59.86 98.41 58.53 96.44 57.05 95.49 C 56.01 96.28 55.02 97.15 53.88 97.81 C 51.80 98.28 50.47 96.26 48.97 95.25 C 48.21 96.09 47.45 96.94 46.69 97.78 C 46.03 97.80 44.69 97.83 44.02 97.85 C 43.23 97.07 42.44 96.29 41.65 95.51 C 40.04 96.24 38.47 98.71 36.52 97.50 C 35.55 97.00 34.60 96.48 33.67 95.92 C 32.06 96.65 30.32 98.70 28.48 97.40 C 27.61 96.92 26.75 96.42 25.90 95.90 C 24.39 96.68 22.96 98.07 21.14 97.86 C 16.71 95.56 18.27 89.95 18.17 85.92 C 17.91 84.02 19.50 82.92 20.70 81.79 C 21.33 82.37 22.60 83.52 23.23 84.10 C 23.22 86.16 23.21 88.22 23.20 90.27 C 24.17 89.68 25.14 89.08 26.11 88.49 C 27.33 89.46 28.54 90.45 29.74 91.46 C 31.12 90.42 32.50 89.40 33.91 88.42 C 35.12 89.42 36.32 90.43 37.51 91.46 C 38.93 90.43 40.37 89.43 41.83 88.46 C 42.93 89.53 44.03 90.62 45.11 91.71 C 46.58 90.60 48.07 89.52 49.60 88.49 C 50.72 89.55 51.83 90.62 52.93 91.70 C 54.25 90.78 55.40 89.50 56.98 89.05 C 58.58 89.30 59.68 90.68 60.99 91.53 C 62.32 90.70 63.41 89.19 65.06 89.07 C 66.60 89.57 67.76 90.78 69.05 91.70 C 70.08 90.69 71.11 89.67 72.14 88.66 C 73.18 89.12 74.22 89.58 75.27 90.05 C 75.19 65.04 75.29 40.03 75.21 15.03 C 75.10 12.21 75.85 9.48 76.65 6.81 C 61.42 6.87 46.18 6.79 30.95 6.84 C 27.55 6.60 23.71 8.60 23.36 12.28 C 22.70 22.64 23.98 33.08 22.66 43.40 C 21.63 43.36 19.58 43.28 18.55 43.24 C 17.69 35.53 18.30 27.77 18.11 20.04 C 18.14 16.70 17.91 13.31 18.56 10.01 Z" />
<path fill="#ffffff" opacity="1.00" d=" M 30.39 25.42 C 32.42 24.40 34.92 27.45 33.27 29.23 C 32.51 31.34 29.55 30.72 28.67 29.02 C 27.95 27.37 28.72 25.93 30.39 25.42 Z" />
<path fill="#ffffff" opacity="1.00" d=" M 36.32 26.90 C 37.41 24.92 39.78 25.68 41.59 25.58 C 41.19 27.23 41.12 29.04 40.17 30.51 C 37.90 31.08 35.76 29.27 36.32 26.90 Z" />
<path fill="#ffffff" opacity="1.00" d=" M 45.47 25.72 C 48.61 23.41 51.13 30.34 46.98 30.43 C 44.05 31.21 43.16 26.73 45.47 25.72 Z" />
<path fill="#ffffff" opacity="1.00" d=" M 28.72 40.09 C 28.27 38.21 28.43 35.81 30.90 35.87 C 43.82 35.64 56.75 35.81 69.67 35.81 C 69.66 37.31 69.70 38.83 69.45 40.31 C 67.03 40.94 64.50 40.89 62.03 40.91 C 53.34 40.86 44.66 40.85 35.98 40.91 C 33.55 40.89 31.03 40.98 28.72 40.09 Z" />
<path fill="#ffffff" opacity="1.00" d=" M 16.36 46.63 C 24.11 44.52 33.05 48.59 36.12 56.10 C 40.05 64.29 35.79 75.06 27.40 78.45 C 20.18 81.75 10.90 78.99 6.64 72.31 C 3.74 68.21 3.58 62.86 4.55 58.11 C 6.15 52.62 10.87 48.16 16.36 46.63 M 18.39 51.58 C 13.51 52.57 9.46 56.93 9.17 61.95 C 8.41 68.21 13.71 74.30 19.98 74.58 C 26.38 75.13 32.44 69.49 32.33 63.06 C 32.62 55.97 25.31 49.93 18.39 51.58 Z" />
<path fill="#ffffff" opacity="1.00" d=" M 39.12 50.98 C 36.57 50.27 37.53 46.22 40.02 46.19 C 44.65 45.55 49.35 46.01 54.01 45.90 C 58.66 46.01 63.36 45.53 67.98 46.20 C 70.05 46.50 69.61 49.14 70.14 50.62 C 63.80 51.71 57.35 51.10 50.96 51.24 C 47.02 51.15 43.03 51.57 39.12 50.98 Z" />
<path fill="#ffffff" opacity="1.00" d=" M 19.47 62.96 C 21.63 60.82 23.61 58.47 26.11 56.72 C 28.60 55.09 31.21 58.97 29.13 60.81 C 26.28 63.90 23.42 67.06 20.03 69.57 C 16.70 69.14 14.64 65.80 12.43 63.54 C 10.89 62.43 11.37 60.71 12.47 59.47 C 15.49 57.93 17.39 61.38 19.47 62.96 Z" />
<path fill="#ffffff" opacity="1.00" d=" M 41.56 61.31 C 41.53 59.50 41.33 56.48 43.99 56.66 C 52.55 56.48 61.12 56.59 69.68 56.66 C 69.61 58.51 70.42 61.34 67.78 61.60 C 59.07 61.93 50.26 62.16 41.56 61.31 Z" />
<path fill="#ffffff" opacity="1.00" d=" M 40.57 70.19 C 41.34 69.09 42.16 68.05 43.05 67.06 C 46.64 66.41 50.31 66.82 53.94 66.73 C 59.43 66.86 65.05 66.13 70.38 67.80 C 70.07 69.06 69.70 70.31 69.28 71.55 C 64.25 72.61 59.06 71.91 53.96 72.10 C 49.47 71.91 44.48 73.02 40.57 70.19 Z" />
</g>
</svg>
