<?xml version="1.0" encoding="UTF-8" ?>
<!DOCTYPE svg PUBLIC "-//W3C//DTD SVG 1.1//EN" "http://www.w3.org/Graphics/SVG/1.1/DTD/svg11.dtd">
<svg width="70pt" height="70pt" viewBox="0 0 70 70" version="1.1" xmlns="http://www.w3.org/2000/svg">
<g id="#ffffffff">
<path fill="#ffffff" opacity="1.00" d=" M 14.78 4.09 C 17.31 4.03 19.84 4.02 22.37 4.08 C 22.49 5.59 22.52 7.11 22.62 8.63 C 26.36 8.56 30.11 8.55 33.85 8.65 C 33.97 7.10 34.34 5.58 34.40 4.03 C 36.85 4.02 39.30 4.00 41.74 4.16 C 41.73 5.60 41.71 7.05 41.70 8.49 C 45.54 8.31 50.97 8.42 51.94 13.14 C 52.57 18.96 52.00 24.86 52.20 30.71 C 50.86 30.72 49.53 30.72 48.20 30.73 C 48.23 27.43 48.24 24.14 48.22 20.84 C 34.99 20.76 21.75 20.95 8.53 20.74 C 8.34 29.32 8.22 37.91 8.60 46.49 C 15.90 46.95 23.22 46.63 30.53 46.69 C 30.48 47.68 30.39 49.64 30.34 50.63 C 23.55 50.68 16.75 50.78 9.95 50.63 C 6.98 50.74 4.46 47.98 4.44 45.09 C 4.27 36.08 4.48 27.06 4.36 18.04 C 4.41 15.38 3.98 12.17 6.26 10.24 C 8.45 7.98 11.84 8.70 14.66 8.54 C 14.68 7.05 14.73 5.57 14.78 4.09 Z" />
<path fill="#ffffff" opacity="1.00" d=" M 13.54 26.54 C 15.47 25.00 18.26 26.02 20.53 25.70 C 21.25 27.89 21.21 30.15 20.48 32.34 C 18.23 31.99 15.37 33.13 13.55 31.42 C 13.27 29.81 13.30 28.15 13.54 26.54 Z" />
<path fill="#ffffff" opacity="1.00" d=" M 24.45 26.39 C 26.54 25.85 28.75 25.38 30.90 25.93 C 33.47 27.17 32.01 30.36 31.39 32.40 C 29.06 32.39 26.71 32.31 24.45 31.69 C 24.46 29.92 24.46 28.16 24.45 26.39 Z" />
<path fill="#ffffff" opacity="1.00" d=" M 35.43 26.44 C 37.56 25.81 39.81 25.37 42.01 25.88 C 44.03 27.08 43.92 30.92 41.99 32.17 C 39.80 32.68 37.56 32.26 35.44 31.64 C 35.45 29.91 35.45 28.17 35.43 26.44 Z" />
<path fill="#ffffff" opacity="1.00" d=" M 34.28 51.00 C 33.69 41.03 44.41 32.61 53.98 35.17 C 61.47 36.87 67.19 44.32 66.59 52.03 C 66.48 55.74 64.65 59.07 62.46 61.96 C 63.23 63.02 64.00 64.08 64.76 65.15 C 61.26 66.19 57.66 66.88 54.01 67.06 C 54.81 63.61 54.65 59.72 56.75 56.71 C 57.78 57.52 58.80 58.34 59.83 59.15 C 62.27 55.38 63.69 50.56 61.66 46.28 C 59.11 39.70 50.39 36.46 44.34 40.36 C 37.71 43.69 36.10 53.49 41.05 58.91 C 43.21 61.60 46.62 62.66 49.81 63.53 C 49.64 64.95 50.14 67.25 47.92 66.93 C 40.27 66.12 33.78 58.76 34.28 51.00 Z" />
<path fill="#ffffff" opacity="1.00" d=" M 13.32 41.50 C 13.39 39.55 13.56 37.60 13.65 35.65 C 15.96 35.63 18.26 35.64 20.57 35.59 C 20.89 37.52 21.67 39.59 20.78 41.48 C 18.46 42.80 15.72 42.23 13.32 41.50 Z" />
<path fill="#ffffff" opacity="1.00" d=" M 24.42 41.55 C 24.48 39.60 24.59 37.64 24.66 35.69 C 26.94 35.65 29.21 35.62 31.48 35.53 C 32.08 37.41 32.32 39.37 32.43 41.33 C 29.85 42.39 27.07 42.40 24.42 41.55 Z" />
<path fill="#ffffff" opacity="1.00" d=" M 50.10 42.05 C 50.80 42.06 52.20 42.07 52.91 42.08 C 53.04 46.02 53.05 49.96 52.91 53.89 C 49.28 54.06 45.65 54.06 42.03 53.86 C 42.04 53.17 42.07 51.80 42.09 51.11 C 44.72 51.01 47.36 50.99 49.99 50.98 C 49.99 48.00 49.99 45.03 50.10 42.05 Z" />
</g>
</svg>
