<?xml version="1.0" encoding="UTF-8" ?>
<!DOCTYPE svg PUBLIC "-//W3C//DTD SVG 1.1//EN" "http://www.w3.org/Graphics/SVG/1.1/DTD/svg11.dtd">
<svg width="70pt" height="70pt" viewBox="0 0 70 70" version="1.1" xmlns="http://www.w3.org/2000/svg">
<g id="#000000ff">
<path fill="#fff" opacity="1.00" d=" M 32.85 7.83 C 34.50 6.41 37.00 7.14 38.28 8.69 C 42.23 12.72 46.39 16.57 50.18 20.75 C 52.66 23.60 48.81 28.18 45.56 26.32 C 43.12 24.46 41.10 22.09 38.86 20.00 C 38.69 27.68 38.92 35.37 38.77 43.04 C 39.12 46.09 35.12 48.05 32.82 46.16 C 31.06 45.06 31.31 42.78 31.24 40.99 C 31.29 33.99 31.34 26.99 31.22 20.00 C 29.15 22.00 27.19 24.11 25.01 25.99 C 22.80 27.89 19.08 25.80 19.16 23.00 C 19.09 20.91 21.04 19.64 22.27 18.22 C 25.88 14.85 29.14 11.10 32.85 7.83 Z" />
<path fill="#fff" opacity="1.00" d=" M 3.24 42.07 C 3.96 38.67 9.20 38.49 10.33 41.75 C 10.93 46.31 10.40 50.92 10.55 55.50 C 26.90 55.52 43.24 55.52 59.58 55.50 C 59.68 50.99 59.30 46.47 59.73 41.99 C 60.69 38.10 67.20 38.83 66.90 42.91 C 66.92 48.68 67.08 54.47 66.82 60.23 C 66.73 62.61 63.97 63.11 62.06 62.95 C 43.68 62.88 25.31 62.99 6.93 62.90 C 4.70 63.25 2.80 61.23 3.11 59.03 C 3.11 53.39 2.89 47.71 3.24 42.07 Z" />
</g>
</svg>
