<?xml version="1.0" encoding="UTF-8" ?>
<!DOCTYPE svg PUBLIC "-//W3C//DTD SVG 1.1//EN" "http://www.w3.org/Graphics/SVG/1.1/DTD/svg11.dtd">
<svg width="50pt" height="50pt" viewBox="0 0 50 50" version="1.1" xmlns="http://www.w3.org/2000/svg">
<g id="#fffffffc">
<path fill="#ffffff" opacity="1.00" d=" M 4.39 9.43 C 12.80 8.90 21.28 9.12 29.70 9.36 C 29.32 15.16 30.57 21.27 29.06 26.86 C 28.59 26.72 27.66 26.44 27.20 26.30 C 26.89 21.46 27.38 16.59 26.87 11.75 C 20.19 11.84 13.52 11.77 6.84 11.80 C 7.07 20.15 6.37 28.59 7.16 36.87 C 10.50 37.86 14.59 36.11 17.52 37.91 C 17.46 38.36 17.33 39.25 17.27 39.69 C 12.94 39.96 8.59 39.73 4.25 39.75 C 4.26 29.65 3.93 19.52 4.39 9.43 Z" />
<path fill="#ffffff" opacity="1.00" d=" M 10.29 16.84 C 14.59 15.57 19.27 16.58 23.71 16.33 C 23.75 16.95 23.82 18.18 23.85 18.80 C 19.33 18.44 14.43 20.06 10.17 18.16 L 10.29 16.84 Z" />
<path fill="#ffffff" opacity="1.00" d=" M 10.88 23.33 C 15.32 23.12 20.28 22.02 24.43 24.02 C 24.18 24.40 23.68 25.15 23.43 25.53 C 18.90 25.90 14.30 25.87 9.79 25.31 C 10.06 24.81 10.61 23.83 10.88 23.33 Z" />
<path fill="#ffffff" opacity="1.00" d=" M 25.01 35.73 C 27.63 33.02 29.69 29.64 32.93 27.60 C 33.25 28.13 33.89 29.19 34.22 29.71 C 31.04 32.92 28.16 36.38 25.10 39.69 C 22.86 37.48 20.25 35.50 18.90 32.57 C 21.65 31.48 23.27 34.19 25.01 35.73 Z" />
<path fill="#ffffff" opacity="1.00" d=" M 39.17 28.05 C 40.86 28.59 42.01 30.00 43.27 31.17 C 45.05 29.80 46.82 27.42 49.28 28.87 C 48.20 30.57 46.95 32.14 45.44 33.48 C 46.96 34.92 48.79 36.32 48.80 38.66 C 46.36 39.02 44.97 36.97 43.55 35.44 C 42.13 36.90 40.58 38.23 38.84 39.29 C 37.49 36.97 39.56 35.37 40.88 33.72 C 40.55 31.71 36.44 29.58 39.17 28.05 Z" />
<path fill="#ffffff" opacity="1.00" d=" M 10.63 29.64 C 12.75 29.58 17.42 28.43 16.13 32.09 C 14.07 32.22 8.91 33.41 10.63 29.64 Z" />
</g>
</svg>
