<?xml version="1.0" encoding="UTF-8" ?>
<!DOCTYPE svg PUBLIC "-//W3C//DTD SVG 1.1//EN" "http://www.w3.org/Graphics/SVG/1.1/DTD/svg11.dtd">
<svg width="70pt" height="70pt" viewBox="0 0 70 70" version="1.1" xmlns="http://www.w3.org/2000/svg">
<g id="#000000ff">
<path fill="#fff" opacity="1.00" d=" M 9.23 11.88 C 8.95 7.24 13.30 3.13 17.88 3.40 C 25.29 3.36 32.70 3.35 40.11 3.40 C 41.62 3.23 42.55 4.52 43.53 5.42 C 49.24 11.30 55.18 16.95 60.84 22.89 C 60.70 34.96 60.87 47.04 60.76 59.11 C 60.87 63.12 57.11 66.77 53.12 66.61 C 41.08 66.64 29.04 66.64 17.00 66.61 C 12.55 66.77 8.89 62.37 9.22 58.05 C 9.22 42.66 9.19 27.27 9.23 11.88 M 13.86 12.93 C 13.91 27.98 13.83 43.02 13.90 58.07 C 13.77 59.88 14.99 61.95 17.02 61.78 C 29.01 61.87 41.02 61.85 53.01 61.79 C 55.00 61.95 56.57 59.98 56.22 58.06 C 56.26 47.43 56.21 36.80 56.23 26.16 C 51.19 25.59 45.11 27.73 40.90 24.06 C 36.59 19.99 38.80 13.50 38.27 8.29 C 31.20 8.35 24.12 8.17 17.04 8.35 C 14.62 8.24 13.63 10.91 13.86 12.93 M 42.92 11.61 C 43.04 14.47 42.34 17.63 43.71 20.28 C 46.21 22.43 49.93 21.10 52.94 21.43 C 49.54 18.21 46.29 14.84 42.92 11.61 Z" />
<path fill="#fff" opacity="1.00" d=" M 25.07 38.99 C 28.33 35.75 31.37 32.24 35.04 29.45 C 38.75 32.18 41.74 35.74 45.01 38.96 C 47.05 40.29 45.36 44.03 43.03 43.08 C 40.85 41.77 39.24 39.72 37.45 37.94 C 37.28 42.99 37.64 48.06 37.30 53.10 C 37.02 55.39 33.18 55.41 32.81 53.11 C 32.49 48.08 32.81 43.04 32.71 38.01 C 30.88 39.81 29.20 41.84 27.00 43.22 C 24.63 43.76 23.09 40.39 25.07 38.99 Z" />
</g>
</svg>
