<?xml version="1.0" encoding="UTF-8" ?>
<!DOCTYPE svg PUBLIC "-//W3C//DTD SVG 1.1//EN" "http://www.w3.org/Graphics/SVG/1.1/DTD/svg11.dtd">
<svg width="50pt" height="50pt" viewBox="0 0 50 50" version="1.1" xmlns="http://www.w3.org/2000/svg">
<g id="#ffffffff">
<path fill="#ffffff" opacity="1.00" d=" M 19.54 13.83 C 22.58 11.66 24.95 8.73 27.83 6.38 L 29.00 6.33 C 31.75 9.55 35.23 12.05 38.05 15.22 C 35.94 15.24 33.82 15.23 31.71 15.35 C 31.76 18.43 31.75 21.51 31.84 24.60 C 29.42 24.67 27.00 24.67 24.58 24.63 C 24.61 21.50 24.61 18.37 24.65 15.24 C 22.80 15.22 20.95 15.25 19.09 15.34 C 19.21 14.96 19.43 14.21 19.54 13.83 Z" />
<path fill="#ffffff" opacity="1.00" d=" M 16.65 23.51 C 17.92 23.51 19.20 23.53 20.47 23.56 C 18.47 25.25 16.11 26.51 14.30 28.42 C 16.58 28.44 18.87 28.41 21.15 28.53 C 21.63 30.00 22.18 31.45 22.74 32.90 C 26.51 32.75 30.28 33.00 34.05 32.70 C 34.41 31.21 34.95 29.78 35.59 28.39 C 37.88 28.45 40.17 28.47 42.45 28.32 C 40.32 26.77 38.14 25.27 36.10 23.59 C 37.40 23.52 38.71 23.51 40.01 23.56 C 42.13 25.20 44.34 26.72 46.72 27.96 C 47.05 31.24 46.80 34.66 45.23 37.62 C 34.09 38.25 22.90 37.71 11.74 37.89 C 9.81 35.30 9.80 31.84 9.22 28.78 C 11.58 26.86 14.20 25.30 16.65 23.51 Z" />
</g>
</svg>
