<?xml version="1.0" encoding="UTF-8" ?>
<!DOCTYPE svg PUBLIC "-//W3C//DTD SVG 1.1//EN" "http://www.w3.org/Graphics/SVG/1.1/DTD/svg11.dtd">
<svg width="70pt" height="70pt" viewBox="0 0 70 70" version="1.1" xmlns="http://www.w3.org/2000/svg">
<g id="#000000ff">
<path fill="#fff" opacity="1.00" d=" M 20.38 5.38 C 28.85 4.62 37.47 5.32 45.99 5.04 C 47.90 5.21 50.35 4.48 51.73 6.21 C 55.86 10.46 60.08 14.62 64.18 18.90 C 65.30 19.96 64.85 21.62 64.97 22.97 C 64.84 36.30 65.05 49.63 64.87 62.95 C 65.11 64.57 63.26 65.07 62.02 64.92 C 56.78 64.98 51.55 64.92 46.32 64.91 C 47.58 63.69 48.65 62.17 50.24 61.35 C 53.90 61.08 57.59 61.37 61.27 61.26 C 61.27 48.75 61.27 36.25 61.27 23.74 C 57.28 23.62 53.28 23.96 49.30 23.59 C 47.62 22.75 46.15 21.04 46.28 19.07 C 46.18 15.62 46.32 12.18 46.27 8.74 C 38.75 8.73 31.24 8.73 23.73 8.74 C 23.74 13.76 23.71 18.78 23.75 23.80 C 22.47 25.03 21.18 26.26 19.90 27.49 C 20.40 20.13 19.60 12.69 20.38 5.38 Z" />
<path fill="#fff" opacity="1.00" d=" M 4.95 46.14 C 11.26 37.53 19.52 28.14 30.96 27.51 C 42.65 27.83 51.18 37.38 57.58 46.17 C 52.27 53.80 45.54 61.26 36.45 64.22 C 29.01 66.52 21.27 63.16 15.65 58.31 C 11.48 54.84 7.92 50.67 4.95 46.14 M 26.43 34.63 C 21.42 36.43 17.70 41.61 18.18 47.00 C 18.40 53.92 25.33 59.32 32.07 58.70 C 39.38 58.58 45.79 51.27 44.16 43.95 C 42.76 36.24 33.56 31.62 26.43 34.63 Z" />
<path fill="#fff" opacity="1.00" d=" M 24.18 42.26 C 26.13 38.95 30.30 37.91 33.88 38.67 C 32.98 41.20 32.15 43.75 31.23 46.27 C 33.89 45.39 36.55 44.55 39.22 43.72 C 41.08 49.66 34.95 55.65 29.09 53.78 C 24.16 52.76 21.34 46.53 24.18 42.26 Z" />
</g>
</svg>
