<?xml version="1.0" encoding="UTF-8" ?>
<!DOCTYPE svg PUBLIC "-//W3C//DTD SVG 1.1//EN" "http://www.w3.org/Graphics/SVG/1.1/DTD/svg11.dtd">
<svg width="50pt" height="50pt" viewBox="0 0 50 50" version="1.1" xmlns="http://www.w3.org/2000/svg">
<g id="#fdfdfdfd">
<path fill="#fdfdfd" opacity="1.00" d=" M 14.82 8.80 C 21.91 2.88 33.77 4.11 39.35 11.54 C 44.35 17.85 44.14 27.74 38.82 33.81 C 36.82 36.36 33.79 37.69 31.05 39.28 C 26.37 40.40 21.31 40.19 17.09 37.69 C 14.12 38.70 11.14 39.73 8.02 40.15 C 8.36 38.80 8.73 37.45 9.18 36.13 C 10.54 33.09 10.86 29.90 8.67 27.16 C 6.88 20.46 9.38 13.06 14.82 8.80 M 14.07 14.15 C 10.98 18.34 10.45 24.25 12.95 28.86 C 14.56 31.09 12.97 33.58 12.44 35.88 C 14.72 35.53 17.21 33.72 19.41 35.27 C 24.61 38.02 31.53 36.90 35.61 32.64 C 41.48 27.31 41.27 16.89 35.14 11.83 C 29.25 6.15 18.63 7.39 14.07 14.15 Z" />
<path fill="#fdfdfd" opacity="1.00" d=" M 16.96 20.14 C 15.78 17.70 17.96 13.28 21.03 14.61 C 22.19 16.64 23.36 19.08 21.65 21.21 C 22.10 24.02 25.38 25.58 27.74 26.83 C 28.27 26.21 29.33 24.98 29.86 24.36 C 31.64 24.75 33.19 25.77 34.65 26.81 C 34.80 29.75 31.61 31.45 29.01 30.75 C 23.61 29.46 19.12 25.17 16.96 20.14 Z" />
</g>
</svg>
