<?xml version="1.0" encoding="UTF-8" ?>
<!DOCTYPE svg PUBLIC "-//W3C//DTD SVG 1.1//EN" "http://www.w3.org/Graphics/SVG/1.1/DTD/svg11.dtd">
<svg width="100pt" height="100pt" viewBox="0 0 100 100" version="1.1" xmlns="http://www.w3.org/2000/svg">
<g id="#f44336ff">
<path fill="#f44336" opacity="1.00" d=" M 8.53 7.72 C 14.98 4.99 22.30 10.38 22.75 17.07 C 23.52 30.21 19.68 43.04 16.47 55.63 C 15.66 58.03 15.23 61.83 11.99 61.94 C 9.10 61.58 8.74 58.27 7.96 56.05 C 4.85 44.59 1.88 32.93 1.40 21.01 C 1.00 15.77 3.27 9.69 8.53 7.72 Z" />
<path fill="#f44336" opacity="1.00" d=" M 46.51 7.73 C 52.97 4.99 60.29 10.36 60.74 17.05 C 61.52 30.17 57.69 42.97 54.49 55.55 C 53.67 57.97 53.25 61.86 49.95 61.93 C 47.05 61.54 46.73 58.19 45.93 55.97 C 42.84 44.52 39.87 32.89 39.40 20.98 C 39.01 15.75 41.27 9.70 46.51 7.73 Z" />
<path fill="#f44336" opacity="1.00" d=" M 84.53 7.73 C 90.99 4.99 98.31 10.39 98.75 17.09 C 99.51 30.22 95.68 43.04 92.47 55.63 C 91.66 58.04 91.22 61.85 87.96 61.94 C 85.07 61.54 84.73 58.22 83.94 56.00 C 80.84 44.54 77.87 32.91 77.40 21.00 C 77.01 15.76 79.27 9.68 84.53 7.73 Z" />
<path fill="#f44336" opacity="1.00" d=" M 9.44 75.65 C 13.38 74.32 18.32 76.08 20.01 80.00 C 21.46 83.46 21.23 87.85 18.81 90.82 C 16.31 94.14 11.70 92.77 8.16 92.80 C 1.27 89.58 1.98 77.71 9.44 75.65 Z" />
<path fill="#f44336" opacity="1.00" d=" M 47.46 75.65 C 51.40 74.32 56.35 76.10 58.02 80.03 C 59.83 84.27 58.97 90.24 54.64 92.61 C 51.88 93.25 48.96 92.96 46.16 92.80 C 39.26 89.59 39.98 77.69 47.46 75.65 Z" />
<path fill="#f44336" opacity="1.00" d=" M 85.39 75.67 C 89.34 74.30 94.34 76.07 96.02 80.03 C 97.45 83.49 97.23 87.85 94.82 90.82 C 92.32 94.13 87.73 92.77 84.20 92.80 C 77.28 89.65 77.95 77.77 85.39 75.67 Z" />
</g>
</svg>
