<?xml version="1.0" encoding="UTF-8" ?>
<!DOCTYPE svg PUBLIC "-//W3C//DTD SVG 1.1//EN" "http://www.w3.org/Graphics/SVG/1.1/DTD/svg11.dtd">
<svg width="100pt" height="100pt" viewBox="0 0 100 100" version="1.1" xmlns="http://www.w3.org/2000/svg">
<g id="#f8d74aff">
<path fill="#fff" opacity="1.00" d=" M 43.50 7.74 C 49.92 4.98 57.22 10.32 57.74 16.97 C 58.51 28.87 55.31 40.55 52.43 51.98 C 51.43 55.05 51.16 58.54 49.13 61.17 C 47.23 62.85 44.32 61.36 43.92 59.03 C 40.25 46.97 37.23 34.58 36.43 21.97 C 35.86 16.46 37.89 9.84 43.50 7.74 Z" />
<path fill="#fff" opacity="1.00" d=" M 44.49 75.64 C 48.80 74.15 54.24 76.56 55.42 81.11 C 56.73 85.33 55.49 91.21 50.92 92.85 C 47.61 92.66 43.37 94.11 40.92 91.16 C 36.41 86.66 38.04 77.41 44.49 75.64 Z" />
</g>
</svg>
