<?xml version="1.0" encoding="UTF-8" ?>
<!DOCTYPE svg PUBLIC "-//W3C//DTD SVG 1.1//EN" "http://www.w3.org/Graphics/SVG/1.1/DTD/svg11.dtd">
<svg width="100pt" height="100pt" viewBox="0 0 100 100" version="1.1" xmlns="http://www.w3.org/2000/svg">
<g id="#ff9800ff">
<path fill="#ff9800" opacity="1.00" d=" M 26.49 6.74 C 32.88 3.99 40.19 9.27 40.73 15.91 C 41.56 29.09 37.69 41.96 34.48 54.59 C 33.67 57.00 33.26 60.78 30.02 60.95 C 27.11 60.60 26.74 57.30 25.96 55.07 C 22.85 43.59 19.87 31.92 19.40 19.99 C 19.01 14.77 21.26 8.72 26.49 6.74 Z" />
<path fill="#ff9800" opacity="1.00" d=" M 65.49 6.74 C 71.89 3.99 79.19 9.28 79.73 15.91 C 80.56 29.10 76.69 41.98 73.47 54.62 C 72.66 57.04 72.22 60.88 68.94 60.94 C 66.07 60.53 65.73 57.23 64.95 55.01 C 61.84 43.56 58.87 31.91 58.40 20.00 C 58.01 14.77 60.26 8.71 65.49 6.74 Z" />
<path fill="#ff9800" opacity="1.00" d=" M 27.43 74.65 C 31.38 73.31 36.35 75.09 38.02 79.04 C 39.83 83.28 38.97 89.24 34.63 91.61 C 31.88 92.28 28.93 91.94 26.11 91.80 C 19.28 88.51 19.98 76.73 27.43 74.65 Z" />
<path fill="#ff9800" opacity="1.00" d=" M 66.44 74.65 C 70.61 73.22 75.88 75.34 77.28 79.67 C 78.80 83.95 77.65 90.12 72.94 91.83 C 69.61 91.71 65.33 93.09 62.88 90.12 C 58.43 85.62 60.04 76.45 66.44 74.65 Z" />
</g>
</svg>
