<?xml version="1.0" encoding="UTF-8" ?>
<!DOCTYPE svg PUBLIC "-//W3C//DTD SVG 1.1//EN" "http://www.w3.org/Graphics/SVG/1.1/DTD/svg11.dtd">
<svg width="30pt" height="30pt" viewBox="0 0 30 30" version="1.1" xmlns="http://www.w3.org/2000/svg">
<g id="#e53935ff">
<path fill="#e53935" opacity="1.00" d=" M 4.20 6.95 C 5.38 5.44 7.18 4.73 9.07 5.19 C 10.77 7.63 13.07 9.55 15.06 11.73 C 17.04 9.66 19.39 7.89 20.85 5.39 C 22.40 5.00 23.96 5.22 25.49 5.59 C 25.61 6.79 25.74 7.99 25.83 9.19 C 23.41 10.76 21.61 13.06 19.40 14.89 C 19.40 15.21 19.40 15.84 19.40 16.15 C 21.60 18.01 23.44 20.28 25.86 21.87 C 25.75 22.98 25.62 24.09 25.49 25.20 C 20.69 27.72 18.28 21.65 15.07 19.30 C 13.09 21.32 11.27 23.51 9.11 25.34 C 7.53 26.71 5.49 25.33 4.31 24.15 C 4.34 23.70 4.40 22.80 4.43 22.36 C 6.58 19.89 9.55 18.07 11.04 15.08 C 8.75 12.41 4.92 10.59 4.20 6.95 Z" />
</g>
</svg>
