<?xml version="1.0" encoding="UTF-8" ?>
<!DOCTYPE svg PUBLIC "-//W3C//DTD SVG 1.1//EN" "http://www.w3.org/Graphics/SVG/1.1/DTD/svg11.dtd">
<svg width="100pt" height="100pt" viewBox="0 0 100 100" version="1.1" xmlns="http://www.w3.org/2000/svg">
<g id="#ffffffff">
<path fill="#ffffff" opacity="1.00" d=" M 62.45 17.39 C 71.00 14.16 81.35 20.19 83.02 29.12 C 84.23 33.62 82.52 38.08 80.98 42.25 C 82.33 41.91 83.68 41.57 85.03 41.21 C 89.22 43.82 92.75 47.31 96.60 50.37 C 98.29 51.77 100.58 53.51 99.77 56.03 C 98.78 58.75 95.78 62.22 92.62 60.34 C 88.47 57.20 84.53 53.74 80.57 50.36 C 78.58 48.98 79.42 46.45 79.30 44.43 C 77.22 45.45 75.20 46.58 73.20 47.75 C 73.26 58.85 73.23 69.95 73.24 81.06 C 73.59 83.52 71.64 85.94 69.07 85.68 C 50.67 85.71 32.26 85.63 13.86 85.85 C 11.46 85.95 7.92 85.18 8.20 82.08 C 7.98 66.04 8.21 49.99 8.09 33.94 C 8.24 32.15 7.82 29.69 9.71 28.65 C 13.70 27.47 17.94 28.12 22.03 28.12 C 31.98 28.20 41.94 28.15 51.89 28.13 C 53.72 23.27 57.31 18.90 62.45 17.39 M 62.52 21.66 C 58.16 23.53 55.17 28.26 55.49 33.02 C 55.41 39.51 61.54 45.28 68.02 44.69 C 75.58 44.65 81.50 36.19 78.87 29.07 C 77.05 22.43 68.75 18.45 62.52 21.66 M 11.85 32.22 C 11.86 48.67 11.91 65.13 11.87 81.59 C 31.01 81.73 50.17 81.71 69.32 81.69 C 69.29 70.72 69.29 59.75 69.32 48.77 C 65.67 48.71 61.82 48.41 58.76 46.21 C 53.95 43.26 51.36 37.67 51.40 32.11 C 49.54 32.12 47.67 32.14 45.81 32.16 C 45.34 36.33 47.19 41.27 44.35 44.82 C 43.08 44.11 41.82 43.41 40.56 42.71 C 38.43 44.60 35.93 44.61 33.78 42.76 C 32.25 43.52 30.73 44.51 28.94 44.30 C 27.73 40.37 28.54 36.16 28.37 32.11 C 22.86 32.10 17.36 32.26 11.85 32.22 M 32.27 32.13 C 32.26 33.90 32.25 35.68 32.24 37.46 C 33.97 37.86 35.58 38.59 37.09 39.51 C 38.72 38.71 40.39 37.99 42.08 37.35 C 42.08 35.63 42.07 33.92 42.05 32.21 C 38.79 32.12 35.53 32.12 32.27 32.13 M 83.11 47.21 C 86.85 50.43 90.68 53.56 94.40 56.80 C 94.78 56.35 95.53 55.45 95.91 55.00 C 92.07 51.97 88.36 48.78 84.64 45.62 C 84.25 46.02 83.49 46.82 83.11 47.21 Z" />
<path fill="#ffffff" opacity="1.00" d=" M 63.13 26.33 C 64.40 26.30 65.66 26.28 66.93 26.26 C 66.90 29.75 66.88 33.24 67.02 36.73 C 65.62 36.68 64.22 36.62 62.82 36.55 C 63.09 33.15 63.15 29.74 63.13 26.33 Z" />
<path fill="#ffffff" opacity="1.00" d=" M 72.58 26.39 C 73.83 26.39 75.07 26.38 76.32 26.38 C 76.32 29.79 76.32 33.20 76.35 36.61 C 75.41 36.60 73.53 36.59 72.59 36.58 C 72.59 33.19 72.59 29.79 72.58 26.39 Z" />
<path fill="#ffffff" opacity="1.00" d=" M 58.57 26.49 C 59.53 26.48 61.44 26.46 62.40 26.44 C 62.39 29.76 62.39 33.09 62.14 36.40 C 61.25 36.49 59.47 36.67 58.58 36.76 C 58.60 33.34 58.54 29.92 58.57 26.49 Z" />
<path fill="#ffffff" opacity="1.00" d=" M 67.68 26.44 C 68.66 26.41 70.61 26.37 71.58 26.35 C 71.56 29.79 71.56 33.23 71.58 36.67 C 70.61 36.64 68.66 36.58 67.69 36.55 C 67.71 33.18 67.71 29.81 67.68 26.44 Z" />
<path fill="#ffffff" opacity="1.00" d=" M 58.79 37.40 C 59.71 36.45 62.96 37.05 61.86 38.72 C 60.94 39.72 57.69 39.06 58.79 37.40 Z" />
<path fill="#ffffff" opacity="1.00" d=" M 63.72 38.02 C 64.61 36.64 65.52 36.63 66.46 37.98 C 65.58 39.36 64.66 39.37 63.72 38.02 Z" />
<path fill="#ffffff" opacity="1.00" d=" M 68.16 37.35 C 69.07 36.41 72.46 37.03 71.14 38.67 C 70.23 39.63 66.84 38.98 68.16 37.35 Z" />
<path fill="#ffffff" opacity="1.00" d=" M 72.99 37.37 C 73.89 36.30 77.08 37.03 75.88 38.69 C 74.98 39.78 71.79 39.01 72.99 37.37 Z" />
<path fill="#ffffff" opacity="1.00" d=" M 50.72 67.06 C 51.87 64.99 53.04 62.94 54.20 60.89 C 55.46 62.77 56.67 64.68 57.90 66.58 C 57.33 66.80 56.18 67.22 55.60 67.44 C 55.64 69.57 55.66 71.71 55.68 73.84 C 54.97 73.80 53.56 73.72 52.85 73.67 C 52.86 71.54 52.88 69.40 52.91 67.27 C 52.36 67.22 51.27 67.11 50.72 67.06 Z" />
<path fill="#ffffff" opacity="1.00" d=" M 59.16 66.14 C 60.25 64.33 61.42 62.56 62.79 60.94 C 63.96 63.03 65.12 65.13 66.32 67.21 C 65.70 67.22 64.46 67.24 63.84 67.25 C 63.86 69.39 63.88 71.52 63.90 73.66 C 63.14 73.63 61.62 73.57 60.86 73.54 C 60.62 71.02 61.78 67.77 59.16 66.14 Z" />
<path fill="#ffffff" opacity="1.00" d=" M 12.91 65.80 C 15.42 65.73 17.93 65.67 20.45 65.64 C 20.44 66.51 20.43 68.24 20.42 69.11 C 17.91 69.04 15.41 68.95 12.91 68.87 C 12.91 68.10 12.91 66.57 12.91 65.80 Z" />
<path fill="#ffffff" opacity="1.00" d=" M 12.90 70.31 C 18.18 69.99 23.46 70.43 28.74 70.34 C 28.74 71.50 28.73 72.67 28.73 73.84 C 23.46 73.79 18.19 74.04 12.92 73.87 C 12.91 72.68 12.90 71.50 12.90 70.31 Z" />
<path fill="#ffffff" opacity="1.00" d=" M 12.90 75.34 C 18.15 75.00 23.39 75.49 28.64 75.40 C 28.65 76.16 28.67 77.70 28.68 78.46 C 23.42 78.35 18.16 78.89 12.90 78.52 C 12.90 77.46 12.90 76.40 12.90 75.34 Z" />
<path fill="#ffffff" opacity="1.00" d=" M 50.86 75.37 C 55.84 75.37 60.81 75.38 65.78 75.34 C 65.88 76.12 66.09 77.68 66.19 78.46 C 61.07 78.50 55.95 78.49 50.83 78.47 C 50.84 77.70 50.85 76.15 50.86 75.37 Z" />
</g>
</svg>
