<?xml version="1.0" encoding="UTF-8" ?>
<!DOCTYPE svg PUBLIC "-//W3C//DTD SVG 1.1//EN" "http://www.w3.org/Graphics/SVG/1.1/DTD/svg11.dtd">
<svg width="50pt" height="50pt" viewBox="0 0 50 50" version="1.1" xmlns="http://www.w3.org/2000/svg">
<g id="#ffffffff">
<path fill="#ffffff" opacity="1.00" d=" M 21.71 10.38 C 23.96 10.24 26.23 10.22 28.49 10.26 C 28.48 13.40 28.47 16.54 28.45 19.69 C 30.33 19.69 32.20 19.69 34.08 19.74 C 31.65 22.67 28.48 24.85 26.03 27.76 C 25.37 27.66 24.72 27.55 24.07 27.44 C 21.67 24.53 18.73 22.13 15.82 19.75 C 17.80 19.69 19.79 19.71 21.77 19.72 C 21.76 16.60 21.76 13.49 21.71 10.38 Z" />
<path fill="#ffffff" opacity="1.00" d=" M 7.31 31.85 C 10.16 30.15 12.59 27.79 15.76 26.65 C 16.62 26.77 17.48 26.90 18.35 27.02 C 17.86 27.12 16.89 27.32 16.41 27.41 L 16.62 28.33 C 15.01 29.30 13.46 30.36 11.91 31.40 C 14.02 31.70 16.15 31.67 18.28 31.62 C 18.83 32.88 19.34 34.15 19.82 35.44 C 23.27 36.13 26.86 35.50 30.37 35.79 C 30.95 34.45 31.50 33.09 31.88 31.67 C 34.07 31.68 36.26 31.73 38.43 31.39 C 36.51 30.02 34.52 28.74 32.46 27.59 C 35.73 25.92 38.34 28.74 40.86 30.30 C 45.04 32.31 41.79 37.37 41.28 40.69 C 30.47 40.77 19.62 41.01 8.81 40.57 C 8.67 39.21 8.54 37.86 8.42 36.50 C 8.22 36.50 7.82 36.48 7.62 36.48 C 7.52 34.93 7.38 33.39 7.31 31.85 Z" />
</g>
</svg>
