<?xml version="1.0" encoding="UTF-8" ?>
<!DOCTYPE svg PUBLIC "-//W3C//DTD SVG 1.1//EN" "http://www.w3.org/Graphics/SVG/1.1/DTD/svg11.dtd">
<svg width="100pt" height="100pt" viewBox="0 0 100 100" version="1.1" xmlns="http://www.w3.org/2000/svg">
<g id="#0d0d0dff">
<path fill="#0a58ca" opacity="1.00" d=" M 52.08 15.42 C 52.83 12.90 52.37 8.25 56.09 8.38 C 67.08 8.14 78.08 8.39 89.07 8.26 C 90.85 8.44 93.16 7.96 94.37 9.65 C 95.33 11.58 94.99 13.87 95.12 15.96 C 94.97 24.16 95.36 32.37 94.81 40.56 C 93.73 40.52 92.65 40.48 91.57 40.43 C 91.53 36.11 91.54 31.79 91.50 27.47 C 63.72 27.39 35.94 27.38 8.17 27.48 C 7.99 29.23 7.82 30.98 7.64 32.72 C 6.58 32.67 5.52 32.62 4.46 32.56 C 4.49 27.86 4.14 23.15 4.57 18.46 C 4.61 16.64 6.39 15.79 8.00 15.82 C 22.68 15.42 37.41 16.28 52.08 15.42 M 81.06 19.80 C 59.71 19.84 38.35 19.83 17.00 19.81 C 15.24 19.76 13.39 19.87 12.19 21.37 C 16.11 21.91 20.06 21.73 24.00 21.74 C 44.02 21.72 64.05 21.74 84.07 21.74 C 85.40 21.89 86.51 21.14 87.59 20.47 C 85.44 20.04 83.26 19.80 81.06 19.80 M 10.31 23.73 L 10.37 25.42 C 34.91 25.53 59.45 25.38 83.98 25.49 C 85.96 25.40 88.33 25.90 89.69 24.03 C 86.15 23.59 82.57 23.69 79.00 23.69 C 56.10 23.74 33.21 23.65 10.31 23.73 Z" />
<path fill="#0a58ca" opacity="1.00" d=" M 3.45 34.49 C 5.92 33.95 8.48 34.18 10.99 34.14 C 21.65 34.27 32.31 34.03 42.97 34.23 C 46.91 34.11 46.55 39.03 47.41 41.68 C 56.92 42.51 66.47 41.89 76.00 42.09 C 82.55 42.31 89.16 41.38 95.67 42.32 C 97.87 42.69 97.82 45.23 97.85 46.95 C 97.83 60.00 97.82 73.04 97.85 86.09 C 97.70 87.64 98.10 89.69 96.45 90.57 C 93.70 91.32 90.81 90.94 88.00 91.02 C 60.98 90.98 33.95 90.98 6.92 91.03 C 5.32 90.86 3.25 91.35 2.19 89.78 C 1.25 88.79 1.56 87.26 1.40 86.02 C 1.41 70.65 1.44 55.29 1.38 39.93 C 1.38 37.96 1.35 35.46 3.45 34.49 Z" />
</g>
</svg>
