<?xml version="1.0" encoding="UTF-8" ?>
<!DOCTYPE svg PUBLIC "-//W3C//DTD SVG 1.1//EN" "http://www.w3.org/Graphics/SVG/1.1/DTD/svg11.dtd">
<svg width="70pt" height="70pt" viewBox="0 0 70 70" version="1.1" xmlns="http://www.w3.org/2000/svg">
<g id="#1d5ebcee">
<path fill="#1d5ebc" opacity="0.93" d=" M 7.18 18.11 C 6.96 16.00 9.11 14.79 10.98 15.05 C 26.18 15.13 41.38 15.07 56.57 15.38 C 58.11 18.30 60.89 19.70 64.07 20.08 C 64.03 28.85 61.36 37.32 60.12 45.95 C 59.30 49.14 59.52 52.83 57.49 55.56 C 56.08 56.11 54.55 55.97 53.08 56.03 C 40.37 55.97 27.67 56.02 14.97 56.00 C 12.48 56.00 9.99 55.88 7.53 55.49 C 7.02 53.03 6.91 50.52 6.97 48.02 C 7.14 38.05 6.96 28.08 7.18 18.11 M 9.28 17.25 C 9.30 29.45 9.03 41.64 9.08 53.83 C 24.91 53.94 40.76 54.18 56.58 53.75 C 58.24 43.04 61.18 32.50 62.00 21.69 C 60.48 21.39 58.96 21.08 57.44 20.76 C 56.75 19.66 56.06 18.55 55.37 17.45 C 40.01 17.26 24.64 17.17 9.28 17.25 Z" />
</g>
<g id="#fbc01eff">
<path fill="#fbc01e" opacity="1.00" d=" M 9.28 17.25 C 24.64 17.17 40.01 17.26 55.37 17.45 C 56.06 18.55 56.75 19.66 57.44 20.76 C 58.96 21.08 60.48 21.39 62.00 21.69 C 61.18 32.50 58.24 43.04 56.58 53.75 C 40.76 54.18 24.91 53.94 9.08 53.83 C 9.03 41.64 9.30 29.45 9.28 17.25 M 10.11 18.04 C 9.99 23.47 9.89 28.90 10.24 34.32 C 10.99 31.33 11.61 28.31 12.38 25.32 C 17.99 23.84 23.85 24.97 29.57 24.58 C 31.22 22.88 32.84 21.14 34.45 19.39 C 39.98 19.13 45.50 19.36 51.03 19.41 C 52.68 19.50 54.31 19.23 55.80 18.50 C 50.24 17.75 44.60 18.20 39.01 18.07 C 29.37 18.14 19.74 17.76 10.11 18.04 Z" />
</g>
<g id="#fefefeff">
<path fill="#fefefe" opacity="1.00" d=" M 10.11 18.04 C 19.74 17.76 29.37 18.14 39.01 18.07 C 44.60 18.20 50.24 17.75 55.80 18.50 C 54.31 19.23 52.68 19.50 51.03 19.41 C 45.50 19.36 39.98 19.13 34.45 19.39 C 32.84 21.14 31.22 22.88 29.57 24.58 C 23.85 24.97 17.99 23.84 12.38 25.32 C 11.61 28.31 10.99 31.33 10.24 34.32 C 9.89 28.90 9.99 23.47 10.11 18.04 Z" />
</g>
</svg>
