<?xml version="1.0" encoding="UTF-8" ?>
<!DOCTYPE svg PUBLIC "-//W3C//DTD SVG 1.1//EN" "http://www.w3.org/Graphics/SVG/1.1/DTD/svg11.dtd">
<svg width="70pt" height="70pt" viewBox="0 0 70 70" version="1.1" xmlns="http://www.w3.org/2000/svg">
<g id="#ffffffff">
<path fill="#ffffff" opacity="1.00" d=" M 1.29 17.69 C 18.18 17.25 35.08 17.62 51.98 17.50 C 57.62 17.65 63.28 17.14 68.90 17.77 C 69.23 19.19 68.22 20.43 67.75 21.69 C 61.57 34.53 55.20 47.26 49.08 60.13 C 48.48 61.61 47.34 62.75 46.21 63.84 C 40.42 58.40 35.07 52.49 29.21 47.11 C 26.22 48.82 23.50 52.13 20.05 52.31 C 17.55 46.68 17.84 40.00 15.96 34.08 C 11.80 27.99 4.58 24.41 1.29 17.69 M 7.08 20.31 C 10.54 24.18 14.22 27.84 18.08 31.29 C 30.63 27.66 43.25 24.30 55.74 20.47 C 39.53 20.15 23.30 20.45 7.08 20.31 M 24.57 38.17 C 32.05 44.83 38.55 52.48 45.99 59.18 C 52.13 46.79 58.03 34.28 64.18 21.90 C 50.91 27.17 37.79 32.79 24.57 38.17 M 19.46 34.14 C 19.57 35.45 19.68 36.76 19.77 38.07 C 21.04 36.85 22.38 35.67 24.04 35.02 C 29.71 32.47 35.52 30.26 41.33 28.06 C 33.96 29.81 26.76 32.16 19.46 34.14 M 23.65 41.61 C 23.43 43.40 23.22 45.19 23.02 46.98 C 24.26 46.24 25.50 45.49 26.73 44.74 C 25.71 43.70 24.68 42.65 23.65 41.61 Z" />
</g>
</svg>
