<?xml version="1.0" encoding="UTF-8" ?>
<!DOCTYPE svg PUBLIC "-//W3C//DTD SVG 1.1//EN" "http://www.w3.org/Graphics/SVG/1.1/DTD/svg11.dtd">
<svg width="50pt" height="50pt" viewBox="0 0 50 50" version="1.1" xmlns="http://www.w3.org/2000/svg">
<g id="#010101ff">
<path fill="#1d64cd" opacity="1.00" d=" M 20.90 1.57 C 23.64 1.05 26.45 1.21 29.11 2.07 C 29.11 4.09 29.86 6.74 27.65 7.93 C 24.40 8.72 20.91 8.57 17.81 9.97 C 10.94 13.35 6.40 21.37 8.02 29.03 C 9.46 39.35 21.31 46.23 31.08 43.05 C 37.45 41.28 42.62 35.70 43.79 29.19 C 44.90 23.47 43.84 16.30 39.05 12.53 C 39.03 11.83 39.01 10.41 38.99 9.71 C 43.16 10.26 44.19 14.94 46.84 17.50 C 48.23 22.81 48.43 28.51 46.96 33.83 C 43.21 39.87 38.33 46.16 30.90 47.54 C 24.89 48.38 18.11 48.61 12.91 44.96 C 8.08 41.90 3.98 37.25 2.65 31.59 C 1.43 26.28 1.98 20.77 3.14 15.50 C 7.20 9.11 12.89 2.46 20.90 1.57 Z" />
</g>
</svg>
