<?xml version="1.0" encoding="UTF-8" ?>
<!DOCTYPE svg PUBLIC "-//W3C//DTD SVG 1.1//EN" "http://www.w3.org/Graphics/SVG/1.1/DTD/svg11.dtd">
<svg width="70pt" height="70pt" viewBox="0 0 70 70" version="1.1" xmlns="http://www.w3.org/2000/svg">
<g id="#1d64cdff">
<path fill="#1d64cd" opacity="1.00" d=" M 26.24 8.23 C 27.50 3.99 32.24 1.14 36.54 2.63 C 39.30 3.34 40.74 5.93 42.02 8.24 C 50.44 11.30 56.92 19.02 58.05 27.97 C 58.63 34.55 57.96 41.16 58.36 47.75 C 58.94 52.47 61.74 56.53 62.88 61.10 C 62.75 63.01 60.90 64.58 58.99 64.47 C 53.50 64.62 48.01 64.44 42.52 64.49 C 40.39 67.04 37.50 69.26 33.98 68.98 C 30.45 69.20 27.76 66.67 25.26 64.59 C 19.64 64.22 13.98 64.82 8.36 64.38 C 6.60 64.35 5.85 62.57 4.94 61.38 C 6.44 57.46 8.30 53.66 9.47 49.63 C 11.03 39.71 7.50 28.77 12.87 19.63 C 15.57 14.17 20.69 10.45 26.24 8.23 M 17.44 25.34 C 14.61 35.97 19.34 47.95 13.28 57.84 C 27.13 57.73 41.00 57.57 54.85 57.92 C 49.50 48.73 52.61 37.87 51.31 27.88 C 50.19 20.33 43.54 14.15 35.92 13.58 C 28.00 12.58 19.80 17.66 17.44 25.34 Z" />
</g>
</svg>
