<?xml version="1.0" encoding="UTF-8" ?>
<!DOCTYPE svg PUBLIC "-//W3C//DTD SVG 1.1//EN" "http://www.w3.org/Graphics/SVG/1.1/DTD/svg11.dtd">
<svg width="70pt" height="70pt" viewBox="0 0 70 70" version="1.1" xmlns="http://www.w3.org/2000/svg">
<g id="#1d64cdff">
<path fill="#1d64cd" opacity="1.00" d=" M 31.00 11.02 C 33.99 6.03 39.34 2.72 45.02 1.70 C 53.48 0.35 62.53 5.19 66.08 13.00 C 67.94 16.70 68.21 21.00 67.67 25.05 C 66.36 33.67 58.67 40.77 49.98 41.42 C 46.61 41.81 43.28 41.03 40.08 40.09 C 37.10 43.05 34.18 46.05 31.15 48.95 C 29.33 48.93 27.51 48.92 25.70 48.89 C 25.82 51.09 25.74 53.29 25.28 55.45 C 23.27 55.46 21.27 55.31 19.27 55.41 C 19.23 57.37 19.36 59.34 19.38 61.31 C 17.23 61.87 15.01 61.90 12.81 61.81 C 12.93 64.06 12.95 66.34 12.27 68.51 C 9.05 67.84 5.29 68.36 2.41 66.77 C 1.71 63.24 2.75 59.57 2.88 55.99 C 11.73 47.08 20.57 38.17 29.51 29.35 C 27.29 23.44 27.51 16.41 31.00 11.02 M 51.42 10.47 C 48.06 12.43 47.95 17.75 51.30 19.77 C 54.43 22.12 59.50 19.91 59.88 16.01 C 60.90 11.54 55.10 7.65 51.42 10.47 M 26.81 39.14 L 28.04 39.81 C 29.86 38.33 31.44 36.60 33.09 34.95 C 32.64 34.50 31.72 33.60 31.26 33.15 C 29.90 35.17 26.92 36.54 26.81 39.14 M 23.34 41.22 C 18.43 46.16 13.35 50.95 8.62 56.06 C 8.99 56.48 9.72 57.33 10.09 57.75 C 15.24 53.00 20.10 47.91 25.08 42.98 C 27.02 41.56 24.85 39.20 23.34 41.22 Z" />
</g>
</svg>
