<?xml version="1.0" encoding="UTF-8" ?>
<!DOCTYPE svg PUBLIC "-//W3C//DTD SVG 1.1//EN" "http://www.w3.org/Graphics/SVG/1.1/DTD/svg11.dtd">
<svg width="50pt" height="50pt" viewBox="0 0 50 50" version="1.1" xmlns="http://www.w3.org/2000/svg">
<g id="#000000ff">
<path fill="#fff" opacity="1.00" d=" M 2.52 10.55 C 4.95 7.71 7.16 4.62 9.97 2.13 L 10.67 2.24 C 13.55 5.88 15.71 10.02 17.85 14.12 C 16.14 15.81 14.36 17.43 12.55 19.00 C 15.18 27.03 20.59 35.07 29.05 37.61 C 32.38 38.84 34.20 35.21 36.45 33.50 C 40.59 35.77 45.18 37.81 48.22 41.55 C 43.81 44.52 39.87 50.26 33.86 48.74 C 25.05 46.59 17.95 40.23 12.00 33.67 C 7.04 28.03 2.92 21.41 1.22 14.04 C 0.61 12.66 1.83 11.58 2.52 10.55 Z" />
<path fill="#fff" opacity="1.00" d=" M 25.58 2.12 C 37.25 1.99 48.11 12.35 47.98 24.14 C 46.92 24.90 45.59 25.12 44.38 25.53 C 43.60 20.04 41.76 14.33 37.27 10.75 C 33.91 7.94 29.60 6.52 25.27 6.22 C 25.37 4.85 25.48 3.49 25.58 2.12 Z" />
<path fill="#fff" opacity="1.00" d=" M 23.80 12.59 C 27.83 11.70 32.24 13.14 34.92 16.30 C 37.60 18.85 38.04 22.75 38.27 26.25 C 36.80 26.38 35.34 26.49 33.87 26.59 C 33.63 24.05 34.05 21.03 31.87 19.20 C 29.93 16.59 26.62 16.34 23.64 16.37 C 23.69 15.11 23.75 13.85 23.80 12.59 Z" />
</g>
</svg>
