<?xml version="1.0" encoding="UTF-8" ?>
<!DOCTYPE svg PUBLIC "-//W3C//DTD SVG 1.1//EN" "http://www.w3.org/Graphics/SVG/1.1/DTD/svg11.dtd">
<svg width="50pt" height="50pt" viewBox="0 0 50 50" version="1.1" xmlns="http://www.w3.org/2000/svg">
<g id="#fcfcfcfc">
<path fill="#fcfcfc" opacity="1.00" d=" M 13.97 8.68 C 21.24 5.82 29.70 5.64 36.73 9.27 C 40.31 11.09 43.51 14.00 44.90 17.84 C 46.92 23.59 44.96 30.43 40.05 34.12 C 35.05 38.34 28.30 38.90 22.04 38.76 C 19.02 41.04 16.00 43.41 12.38 44.67 L 12.54 45.51 C 11.55 45.53 10.57 45.54 9.58 45.56 C 9.50 44.97 9.36 43.79 9.29 43.20 C 10.49 41.17 11.47 39.04 12.45 36.90 C 7.70 33.92 3.76 28.92 4.14 23.03 C 3.23 16.46 8.57 11.32 13.97 8.68 M 9.40 16.52 C 4.71 22.40 8.57 31.92 15.48 34.10 C 15.44 36.14 14.99 38.12 14.33 40.05 C 16.51 38.86 18.09 36.91 20.03 35.43 C 23.60 35.14 27.31 35.98 30.80 34.79 C 36.17 33.63 40.89 29.64 42.32 24.24 C 43.33 16.99 36.47 11.56 29.95 10.50 C 22.72 9.36 14.21 10.39 9.40 16.52 Z" />
<path fill="#fcfcfc" opacity="1.00" d=" M 15.21 16.29 C 20.38 15.20 25.73 16.06 30.98 15.77 C 32.64 15.52 35.49 16.04 34.47 18.56 C 28.14 18.88 21.78 18.73 15.44 18.65 C 15.39 18.06 15.27 16.88 15.21 16.29 Z" />
<path fill="#fcfcfc" opacity="1.00" d=" M 15.72 21.55 C 19.78 21.38 23.86 21.28 27.92 21.50 C 29.46 21.75 28.48 23.24 28.39 24.22 C 24.02 23.86 19.44 24.97 15.25 23.48 C 15.36 23.00 15.60 22.03 15.72 21.55 Z" />
<path fill="#fcfcfc" opacity="1.00" d=" M 15.25 26.57 C 17.92 25.88 20.73 26.33 23.46 26.25 C 23.55 26.82 23.72 27.97 23.80 28.55 C 21.07 29.51 18.13 28.63 15.30 28.78 C 15.29 28.22 15.26 27.12 15.25 26.57 Z" />
</g>
</svg>
