<?xml version="1.0" encoding="UTF-8" ?>
<!DOCTYPE svg PUBLIC "-//W3C//DTD SVG 1.1//EN" "http://www.w3.org/Graphics/SVG/1.1/DTD/svg11.dtd">
<svg width="70pt" height="70pt" viewBox="0 0 70 70" version="1.1" xmlns="http://www.w3.org/2000/svg">
<g id="#000000ff">
<path fill="#0a58ca" opacity="1.00" d=" M 32.34 2.45 C 35.45 1.32 39.33 1.97 41.33 4.81 C 44.08 7.49 42.69 11.59 43.00 14.97 C 43.60 22.63 40.92 29.92 39.23 37.26 C 38.49 39.89 38.13 43.38 35.06 44.31 C 32.18 42.56 31.92 38.97 31.01 36.06 C 29.07 27.47 26.35 18.83 27.08 9.93 C 27.37 6.73 29.66 4.03 32.34 2.45 Z" />
<path fill="#0a58ca" opacity="1.00" d=" M 27.93 60.94 C 28.82 57.18 31.69 53.05 36.10 53.91 C 40.01 53.80 41.68 57.82 42.84 60.88 C 41.67 63.95 40.04 68.31 36.02 68.01 C 31.56 68.97 28.87 64.63 27.93 60.94 Z" />
</g>
</svg>
