<?xml version="1.0" encoding="UTF-8" ?>
<!DOCTYPE svg PUBLIC "-//W3C//DTD SVG 1.1//EN" "http://www.w3.org/Graphics/SVG/1.1/DTD/svg11.dtd">
<svg width="70pt" height="70pt" viewBox="0 0 70 70" version="1.1" xmlns="http://www.w3.org/2000/svg">
<g id="#000000ff">
<path fill="#fff" opacity="1.00" d=" M 17.86 9.07 C 20.46 8.99 23.06 8.99 25.66 9.12 C 25.69 10.58 25.71 12.03 25.71 13.49 C 29.62 13.56 33.53 13.54 37.43 13.53 C 37.52 12.01 37.61 10.50 37.71 8.99 C 40.24 9.00 42.76 9.00 45.29 9.00 C 45.38 10.50 45.47 12.00 45.55 13.50 C 49.17 13.35 54.08 13.23 55.53 17.38 C 56.36 23.60 55.63 29.96 55.90 36.24 C 54.55 36.25 53.21 36.27 51.86 36.29 C 51.86 32.93 51.86 29.58 51.88 26.22 C 38.36 26.20 24.83 26.19 11.31 26.22 C 11.35 33.83 11.32 41.44 11.31 49.05 C 11.29 50.33 11.34 52.46 13.11 52.44 C 20.06 52.74 27.02 52.43 33.97 52.56 C 33.82 53.90 33.67 55.24 33.52 56.59 C 26.73 56.50 19.95 56.68 13.17 56.53 C 10.16 56.54 7.39 53.94 7.36 50.90 C 7.19 41.60 7.39 32.29 7.27 22.98 C 7.31 20.33 6.94 17.17 9.17 15.23 C 11.41 12.94 14.84 13.64 17.72 13.50 C 17.75 12.02 17.80 10.54 17.86 9.07 Z" />
<path fill="#fff" opacity="1.00" d=" M 16.59 31.70 C 18.76 30.71 21.37 31.13 23.68 31.40 C 24.84 33.01 24.03 35.35 24.31 37.25 C 21.75 37.66 19.15 37.66 16.57 37.44 C 16.49 35.53 16.30 33.60 16.59 31.70 Z" />
<path fill="#fff" opacity="1.00" d=" M 28.25 31.45 C 30.64 31.00 33.09 31.28 35.49 31.45 C 35.51 33.38 35.66 35.34 35.27 37.24 C 32.79 37.98 30.18 37.56 27.66 37.23 C 27.91 35.35 27.22 33.12 28.25 31.45 Z" />
<path fill="#fff" opacity="1.00" d=" M 39.24 31.28 C 41.72 31.18 44.20 31.18 46.67 31.31 C 46.61 33.32 47.23 35.52 46.31 37.39 C 44.02 37.72 41.70 37.59 39.40 37.60 C 38.84 35.53 38.91 33.38 39.24 31.28 Z" />
<path fill="#fff" opacity="1.00" d=" M 50.01 46.29 C 52.99 43.40 55.80 40.33 58.84 37.50 C 59.70 37.48 61.42 37.45 62.28 37.43 C 63.21 38.97 64.45 41.16 62.90 42.75 C 58.93 47.23 54.38 51.16 50.36 55.60 C 48.93 55.48 47.16 56.16 46.05 54.93 C 43.71 52.82 41.61 50.46 39.37 48.23 C 39.39 47.35 39.43 45.61 39.44 44.73 C 40.73 44.04 42.08 43.47 43.51 43.17 C 44.63 44.34 45.75 45.51 46.83 46.71 C 47.87 46.62 49.21 47.20 50.01 46.29 Z" />
<path fill="#fff" opacity="1.00" d=" M 16.48 41.43 C 18.90 41.26 21.35 41.00 23.76 41.42 C 24.71 43.16 24.10 45.34 24.32 47.25 C 21.75 47.72 19.13 47.70 16.54 47.46 C 16.49 45.45 16.47 43.44 16.48 41.43 Z" />
<path fill="#fff" opacity="1.00" d=" M 28.28 41.43 C 30.67 40.96 33.12 41.26 35.53 41.48 C 35.51 43.47 35.48 45.46 35.42 47.45 C 32.83 47.69 30.22 47.72 27.66 47.27 C 27.93 45.37 27.17 43.06 28.28 41.43 Z" />
</g>
</svg>
